<?xml version="1.0" encoding="utf-8"?>
<!-- Generator: Adobe Illustrator 24.3.0, SVG Export Plug-In . SVG Version: 6.00 Build 0)  -->
<svg version="1.1" id="Layer_1" xmlns="http://www.w3.org/2000/svg" xmlns:xlink="http://www.w3.org/1999/xlink" x="0px" y="0px"
	 viewBox="0 0 1097.1 820.8" style="enable-background:new 0 0 1097.1 820.8;" xml:space="preserve">
<style type="text/css">
	.st0{opacity:0.1;fill:#FFBD59;enable-background:new    ;}
	.st1{fill:#FFC1C7;}
	.st2{fill:#575988;}
	.st3{fill:none;}
	.st4{opacity:0.1;enable-background:new    ;}
	.st5{opacity:0.1;fill:#49C5E5;enable-background:new    ;}
	.st6{opacity:0.1;}
	.st7{fill:none;stroke:#535461;stroke-width:2;stroke-miterlimit:10;}
	.st8{fill:#FFBD59;}
	.st9{opacity:0.25;enable-background:new    ;}
	.st10{fill:url(#SVGID_1_);}
	.st11{fill:#FFC1C8;}
	.st12{opacity:3.000000e-02;enable-background:new    ;}
	.st13{fill:#FF748F;}
	.st14{fill:#5D618C;}
	.st15{fill:#DCE6F2;}
	.st16{fill:#FFFFFF;}
	.st17{fill:#49C5E5;}
	.st18{fill:#FF6584;}
	.st19{opacity:0.2;enable-background:new    ;}
	.st20{fill:#794F6A;}
	.st21{fill:#945B79;}
	.st22{opacity:0.1;fill:none;stroke:#000000;stroke-width:2;stroke-miterlimit:10;enable-background:new    ;}
	.st23{fill:#FFD037;}
	.st24{fill:#A8A8A8;}
</style>
<ellipse class="st0" cx="570.7" cy="802" rx="348.8" ry="18.9"/>
<path class="st1" d="M768.3,728l-3,4.4L746.8,760l-15.8,4.8l-11.8-11.5l0.6-7.6l2.9-39.4c0,0-72.7-42.8-79.2-50.8
	S612,640.2,612,640.2s-38.2-17.8-52.5-48.8s23.8-35.8,23.8-35.8L726,692.2L768.3,728z"/>
<path class="st2" d="M785.8,744l-45.2,42.2c0,0-26,5-49.2,1.5c-14.9-2.2-12-10.4-8.1-16l0.1-0.1c2.3-3.2,5.8-5.5,9.6-6.3
	c19.2-4.6,25.9-18.6,25.9-18.6l14,12l24.2-28.3l17.9,8.4L785.8,744z"/>
<line class="st3" x1="729.8" y1="778.7" x2="775" y2="739.4"/>
<path class="st4" d="M775,738.9l-10.7-5l1-1.5l3-4.4L726,692.2L583.3,555.7c0,0-38,4.7-23.8,35.7s52.5,48.8,52.5,48.8
	s25,7.2,31.5,15.2s79.2,50.8,79.2,50.8l-2.9,39.4l-0.1,1.9l-0.9-0.8c0,0-6.6,13.9-25.9,18.6c-3.9,0.9-7.3,3.1-9.6,6.3l-0.1,0.1
	c-4,5.6-6.8,13.8,8.1,16c23.2,3.5,49.2-1.5,49.2-1.5l45.2-42.2L775,738.9z"/>
<path class="st5" d="M11.8,430C29.2,504.2,66,568.3,124,599.4c120.7,64.6,392.9,31.3,596.1-7c102.7-19.3,195.8-72.5,264.5-151.2
	L11.8,430z"/>
<path class="st5" d="M1077.2,80.7H965.7c-5.3-0.2-9.5-4.6-9.3-9.9c0.2-5.1,4.2-9.2,9.3-9.3H985c-5.3,0-9.6-4.3-9.6-9.6
	s4.3-9.6,9.6-9.6h-13.8c-5.3-0.2-9.5-4.6-9.3-9.9c0.2-5.1,4.2-9.2,9.3-9.3h58.2c-12.9-6-28-10.3-45.4-12.5
	c-158.6-20.4-215.3-6.9-235.3,7c-24.7,17.1-52.2,29.7-81.5,35.7c-97.9,20.2-280.9,44.5-446.8-7.8c-82.5-26-143.7,17.9-180.5,91.3
	h1056.6c-1.4-21.3-5.5-41-13.1-58.2C1081.7,79.9,1079.5,80.7,1077.2,80.7z"/>
<path class="st5" d="M2.4,275.1c-4.3,43.2-2.8,86.7,4.3,129.5l978.7,35.8c27.2-31.3,50.1-66.2,68-103.7L2.4,275.1z M389.5,367.4
	h-19.3c5.3-0.2,9.8,4,9.9,9.3s-4,9.8-9.3,9.9c-0.2,0-0.4,0-0.6,0H258.7c-5.3-0.2-9.5-4.6-9.3-9.9c0.2-5.1,4.2-9.2,9.3-9.3H278
	c-5.3,0-9.6-4.3-9.6-9.6s4.3-9.6,9.6-9.6h-13.8c-5.3-0.2-9.5-4.6-9.3-9.9c0.2-5.1,4.2-9.2,9.3-9.3h111.5c5.3,0.2,9.5,4.6,9.3,9.9
	c-0.2,5.1-4.2,9.2-9.3,9.3h13.8c5.3,0,9.6,4.3,9.6,9.6S394.8,367.4,389.5,367.4L389.5,367.4z"/>
<path class="st5" d="M1096.6,137.3l-1068.5,26c-13,33.4-21.6,71.1-25.6,110.3h1075.3c7-23,12.2-46.5,15.5-70.3
	C1096.6,180.3,1097.9,158,1096.6,137.3z M219.5,222.4h-19.3c5.3-0.2,9.8,4,9.9,9.3s-4,9.8-9.3,9.9c-0.2,0-0.4,0-0.6,0H88.7
	c-5.3-0.2-9.5-4.6-9.3-9.9c0.2-5.1,4.2-9.2,9.3-9.3H108c-5.3,0-9.6-4.3-9.6-9.6s4.3-9.6,9.6-9.6H94.2c-5.3-0.2-9.5-4.6-9.3-9.9
	c0.2-5.1,4.2-9.2,9.3-9.3h111.5c5.3,0.2,9.5,4.6,9.3,9.9c-0.2,5.1-4.2,9.2-9.3,9.3h13.8c5.3,0,9.6,4.3,9.6,9.6
	C229.1,218.1,224.8,222.4,219.5,222.4z"/>
<g class="st6">
	<path class="st7" d="M797.3,493.6c0,0,28.2-69.5,80.9-95.3c22.2-10.7,40.3-28.2,51.6-50.1c5.3-10.4,9.6-21.3,12.9-32.5"/>
	<path class="st8" d="M975.8,299.4c-5.5,6.9-33.9,17-33.9,17s3.4-30,8.9-36.9c5.1-7.2,15-9,22.3-3.9c7.2,5.1,9,15,3.9,22.3
		C976.6,298.4,976.2,298.9,975.8,299.4L975.8,299.4z"/>
	<path class="st8" d="M966,354c-8.4,2.8-37.7-4.2-37.7-4.2s19.2-23.3,27.5-26.1c8.2-3.4,17.5,0.6,20.9,8.7
		c3.4,8.2-0.6,17.5-8.7,20.9C967.3,353.6,966.7,353.8,966,354z"/>
	<path class="st8" d="M913.1,418.6c-8.6-1.8-30.4-22.6-30.4-22.6s28.3-10.4,36.9-8.6c8.5,2.3,13.5,11.1,11.2,19.7
		C928.7,414.8,921.1,419.8,913.1,418.6L913.1,418.6z"/>
	<path class="st8" d="M862.1,458.5c-8.8-0.3-33.8-17.2-33.8-17.2s26.1-15.1,34.9-14.8c8.8-0.3,16.2,6.7,16.5,15.5
		s-6.7,16.2-15.5,16.5C863.6,458.6,862.9,458.6,862.1,458.5z"/>
	<path class="st8" d="M901,330.3c1.1,8.8,20.2,32.1,20.2,32.1s12.6-27.4,11.5-36.1c-1.7-8.7-10.1-14.3-18.8-12.6
		C906,315.1,900.5,322.3,901,330.3z"/>
	<path class="st8" d="M842,377.7c3.7,8,28.9,24.5,28.9,24.5s3.8-29.9,0.1-37.9c-4.2-7.8-13.9-10.6-21.7-6.4
		C842.2,361.7,839.1,370.2,842,377.7L842,377.7z"/>
	<path class="st8" d="M790.9,431.6c2.3,8.5,24.3,29.1,24.3,29.1s8.8-28.8,6.5-37.4c-2.8-8.4-11.9-12.9-20.3-10.1
		C793.8,415.8,789.3,423.7,790.9,431.6L790.9,431.6z"/>
	<path class="st9" d="M975.8,299.4c-5.5,6.9-33.9,17-33.9,17s3.4-30,8.9-36.9c5.1-7.2,15-9,22.3-3.9c7.2,5.1,9,15,3.9,22.3
		C976.6,298.4,976.2,298.9,975.8,299.4L975.8,299.4z"/>
	<path class="st9" d="M966,354c-8.4,2.8-37.7-4.2-37.7-4.2s19.2-23.3,27.5-26.1c8.2-3.4,17.5,0.6,20.9,8.7
		c3.4,8.2-0.6,17.5-8.7,20.9C967.3,353.6,966.7,353.8,966,354z"/>
	<path class="st9" d="M913.1,418.6c-8.6-1.8-30.4-22.6-30.4-22.6s28.3-10.4,36.9-8.6c8.5,2.3,13.5,11.1,11.2,19.7
		C928.7,414.8,921.1,419.8,913.1,418.6L913.1,418.6z"/>
	<path class="st9" d="M862.1,458.5c-8.8-0.3-33.8-17.2-33.8-17.2s26.1-15.1,34.9-14.8c8.8-0.3,16.2,6.7,16.5,15.5
		s-6.7,16.2-15.5,16.5C863.6,458.6,862.9,458.6,862.1,458.5z"/>
	<path class="st9" d="M901,330.3c1.1,8.8,20.2,32.1,20.2,32.1s12.6-27.4,11.5-36.1c-1.7-8.7-10.1-14.3-18.8-12.6
		C906,315.1,900.5,322.3,901,330.3z"/>
	<path class="st9" d="M842,377.7c3.7,8,28.9,24.5,28.9,24.5s3.8-29.9,0.1-37.9c-4.2-7.8-13.9-10.6-21.7-6.4
		C842.2,361.7,839.1,370.2,842,377.7L842,377.7z"/>
	<path class="st9" d="M790.9,431.6c2.3,8.5,24.3,29.1,24.3,29.1s8.8-28.8,6.5-37.4c-2.8-8.4-11.9-12.9-20.3-10.1
		C793.8,415.8,789.3,423.7,790.9,431.6L790.9,431.6z"/>
</g>
<g class="st6">
	<path class="st7" d="M752.4,382.4c0,0,3.6-74.9,44.7-116.7c17.4-17.4,28.6-40,32-64.3c1.5-11.6,2-23.3,1.4-35"/>
	<path class="st8" d="M856.3,139.9c-2.9,8.3-26.3,27.3-26.3,27.3s-6.7-29.4-3.8-37.7c3.4-8.1,12.8-12,21-8.5
		C854.5,124.1,858.5,132.2,856.3,139.9z"/>
	<path class="st8" d="M865.3,194.7c-7,5.4-36.9,8.6-36.9,8.6s10.3-28.3,17.3-33.7c7.3-5,17.3-3.1,22.2,4.2
		C872.4,180.4,871.3,189.4,865.3,194.7L865.3,194.7z"/>
	<path class="st8" d="M836.8,273.2c-8.7,1.2-36.2-11.3-36.2-11.3s23.2-19.2,32-20.4c8.8-0.6,16.5,6.1,17.1,14.9
		C850.2,264.4,844.7,271.6,836.8,273.2L836.8,273.2z"/>
	<path class="st8" d="M801.9,327.7c-8.4,2.6-37.6-5-37.6-5s19.6-22.9,28.1-25.5c8.2-3.2,17.5,0.9,20.7,9.1s-0.9,17.5-9.1,20.7
		C803.4,327.3,802.7,327.5,801.9,327.7L801.9,327.7z"/>
	<path class="st8" d="M796.1,193.9c4,7.9,29.7,23.6,29.7,23.6s2.8-30-1.2-37.9c-4.5-7.6-14.3-10.2-21.9-5.7
		C795.8,178,793,186.5,796.1,193.9L796.1,193.9z"/>
	<path class="st8" d="M756.1,258.2c6.1,6.3,35.4,13.6,35.4,13.6s-6.3-29.5-12.5-35.8c-6.5-5.9-16.7-5.5-22.6,1.1
		C751,243,750.9,252.1,756.1,258.2L756.1,258.2z"/>
	<path class="st8" d="M725.8,326c5,7.3,32.6,19.4,32.6,19.4s-1.3-30.1-6.2-37.4c-5.5-6.9-15.6-8.1-22.5-2.6
		C723.4,310.3,721.8,319.1,725.8,326L725.8,326z"/>
</g>
<path class="st0" d="M431,85.5c0,0-23.8-1.4-21,15.3c-0.3,1.7,0.6,3.5,2.1,4.3c0,0,0-1.2,2.4-0.8c0.9,0.1,1.7,0.2,2.6,0.1
	c1.2-0.1,2.3-0.5,3.2-1.3l0,0c0,0,6.7-2.8,9.3-13.7c0,0,1.9-2.4,1.9-3l-4,1.7c0,0,1.4,2.9,0.3,5.3c0,0-0.1-5.2-0.9-5.1
	c-0.2,0-2.1,1-2.1,1s2.4,5.1,0.6,8.7c0,0,0.7-6.2-1.3-8.4l-2.8,1.6c0,0,2.8,5.2,0.9,9.5c0,0,0.5-6.5-1.5-9.1l-2.6,2
	c0,0,2.6,5.1,1,8.7c0,0-0.2-7.6-1.6-8.2c-1,0.8-1.8,1.8-2.6,2.8c0,0,1.8,3.7,0.7,5.7c0,0-0.7-5.1-1.2-5.1c0,0-2.2,3.4-2.5,5.7
	c0.1-2.1,0.8-4.2,1.9-6c-1.3,0.2-2.5,0.9-3.4,1.8c0,0,0.4-2.4,4-2.6c0,0,1.9-2.6,2.3-2.7c0,0-3.6-0.3-5.8,0.7c0,0,1.9-2.2,6.5-1.2
	l2.5-2.1c0,0-4.8-0.6-6.8,0.1c0,0,2.3-2,7.5-0.5l2.8-1.6c-2.1-0.5-4.3-0.7-6.5-0.6c0,0,2.5-1.4,7.3,0.1l2-0.9c0,0-3-0.6-3.8-0.7
	s-0.9-0.3-0.9-0.3c1.9-0.3,3.8-0.1,5.6,0.6C427,87.3,431.1,85.8,431,85.5z"/>
<path class="st0" d="M368.4,166.8c0,0-8.1,22.4,8.7,24.5c1.6,0.8,3.5,0.4,4.7-0.8c0,0-1.2-0.4-0.1-2.6c0.4-0.8,0.6-1.6,0.8-2.4
	c0.3-1.1,0.1-2.3-0.4-3.4l0,0c0,0-0.8-7.2-10.5-12.8c0,0-1.8-2.5-2.4-2.6l0.5,4.3c0,0,3.2-0.5,5.2,1.2c0,0-5-1.4-5.1-0.6
	c0,0.2,0.4,2.3,0.4,2.3s5.5-0.8,8.5,1.9c0,0-5.8-2.4-8.4-1.1l0.8,3.2c0,0,5.8-1.2,9.3,1.8c0,0-6.1-2.3-9.1-1.2l1.2,3
	c0,0,5.7-1,8.6,1.5c0,0-7.4-2-8.3-0.8c0.5,1.2,1.2,2.3,2,3.3c0,0,4.1-0.6,5.7,1c0,0-5-0.8-5.2-0.3c0,0,2.6,3.1,4.7,4
	c-2-0.7-3.8-1.9-5.2-3.5c-0.1,1.3,0.1,2.6,0.7,3.7c0,0-2.2-1-1.3-4.5c0,0-1.9-2.5-1.9-3c0,0-1.3,3.4-1,5.8c0,0-1.6-2.5,0.7-6.5
	l-1.3-3c0,0-2,4.4-1.9,6.5c0,0-1.2-2.8,1.6-7.3l-0.8-3.1c-1,1.9-1.8,3.9-2.4,6c0,0-0.6-2.8,2.2-6.9l-0.3-2.1c0,0-1.4,2.7-1.7,3.5
	s-0.6,0.8-0.6,0.8c0.2-1.9,1-3.7,2.2-5.2C369,171.2,368.7,166.8,368.4,166.8z"/>
<path class="st0" d="M526.5,147.9c0,0-8.2,22.4,8.7,24.5c1.6,0.8,3.5,0.5,4.7-0.8c0,0-1.2-0.4-0.1-2.6c0.4-0.8,0.7-1.6,0.9-2.4
	c0.3-1.1,0.1-2.3-0.4-3.4l0,0c0,0-0.8-7.2-10.5-12.8c0,0-1.7-2.5-2.3-2.6l0.5,4.4c0,0,3.2-0.5,5.2,1.2c0,0-5-1.4-5.1-0.6
	c0,0.1,0.4,2.3,0.4,2.3s5.5-0.8,8.5,1.9c0,0-5.8-2.4-8.4-1.1l0.8,3.2c0,0,5.8-1.2,9.3,1.8c0,0-6.1-2.3-9.1-1.1l1.2,3
	c0,0,5.7-1,8.6,1.5c0,0-7.3-2-8.3-0.8c0.5,1.2,1.2,2.3,1.9,3.3c0,0,4.1-0.6,5.7,1c0,0-5.1-0.8-5.2-0.3c0,0,2.6,3.1,4.7,4
	c-2-0.7-3.8-1.9-5.2-3.6c-0.1,1.3,0.1,2.6,0.7,3.8c0,0-2.2-1-1.3-4.6c0,0-1.9-2.5-1.9-3c0,0-1.3,3.4-1,5.8c0,0-1.6-2.5,0.7-6.5
	l-1.3-3c0,0-2,4.4-1.8,6.5c0,0-1.2-2.8,1.6-7.3l-0.8-3.1c-1,1.9-1.8,3.9-2.4,6c0,0-0.6-2.8,2.2-6.9l-0.3-2.1c0,0-1.4,2.7-1.7,3.5
	s-0.6,0.8-0.6,0.8c0.2-1.9,1-3.7,2.2-5.2C527.1,152.3,526.7,147.9,526.5,147.9z"/>
<path class="st0" d="M268.2,119.7c0,0-8.1,22.4,8.7,24.5c1.6,0.8,3.5,0.5,4.7-0.8c0,0-1.2-0.4-0.1-2.6c0.4-0.8,0.7-1.6,0.9-2.4
	c0.3-1.1,0.1-2.3-0.4-3.4l0,0c0,0-0.8-7.2-10.5-12.8c0,0-1.7-2.5-2.4-2.6l0.5,4.3c0,0,3.2-0.5,5.2,1.2c0,0-5-1.4-5.1-0.6
	c0,0.2,0.4,2.3,0.4,2.3s5.5-0.8,8.5,1.9c0,0-5.8-2.4-8.4-1.1l0.8,3.2c0,0,5.8-1.2,9.3,1.8c0,0-6.1-2.3-9.1-1.2l1.2,3
	c0,0,5.7-1,8.6,1.5c0,0-7.4-2-8.3-0.8c0.5,1.2,1.2,2.3,1.9,3.3c0,0,4.1-0.6,5.7,1c0,0-5-0.8-5.2-0.3c0,0,2.6,3.1,4.7,4
	c-2-0.7-3.8-1.9-5.2-3.6c-0.1,1.3,0.1,2.6,0.7,3.8c0,0-2.2-1-1.4-4.5c0,0-1.9-2.5-1.9-3c0,0-1.3,3.4-1,5.8c0,0-1.6-2.5,0.7-6.5
	l-1.3-3c0,0-2,4.4-1.9,6.5c0,0-1.2-2.8,1.6-7.3l-0.8-3.1c-1,1.9-1.8,3.9-2.4,6c0,0-0.6-2.8,2.2-6.9l-0.3-2.1c0,0-1.4,2.7-1.7,3.5
	c-0.3,0.8-0.6,0.8-0.6,0.8c0.2-1.9,1-3.7,2.2-5.2C268.8,124.2,268.5,119.8,268.2,119.7z"/>
<path class="st0" d="M518.6,272c0,0,6.3,23,21.2,15c1.7-0.3,3.1-1.6,3.4-3.4c0,0-1.2,0.4-1.6-2.1c-0.1-0.9-0.4-1.7-0.7-2.5
	c-0.5-1.1-1.2-2-2.2-2.6l0,0c0,0-4.8-5.5-16-4.4c0,0-2.9-1.1-3.4-0.8l2.9,3.3c0,0,2.3-2.2,4.9-2c0,0-4.9,1.8-4.5,2.5
	c0.1,0.1,1.6,1.7,1.6,1.7s4-3.9,8.1-3.4c0,0-6.1,1.4-7.5,3.9l2.5,2.2c0,0,4.1-4.3,8.7-3.9c0,0-6.3,1.6-8.1,4.3l2.7,1.8
	c0,0,4-4.1,7.9-3.8c0,0-7.1,2.6-7.2,4.1c1.1,0.7,2.3,1.2,3.5,1.6c0,0,3-2.9,5.2-2.5c0,0-4.6,2.3-4.4,2.8c0,0,3.9,1,6.2,0.5
	c-2,0.6-4.2,0.6-6.3,0.1c0.6,1.1,1.6,2.1,2.8,2.7c0,0-2.4,0.4-3.7-2.9c0,0-3-0.9-3.3-1.4c0,0,0.9,3.5,2.5,5.3c0,0-2.7-1.1-3.2-5.7
	l-2.8-1.7c0,0,0.9,4.7,2.2,6.4c0,0-2.6-1.6-2.9-6.9l-2.5-2.1c0.2,2.2,0.8,4.3,1.5,6.3c0,0-2.1-2-2.2-6.9l-1.5-1.6c0,0,0.4,3,0.6,3.9
	s0,1,0,1c-0.9-1.7-1.3-3.6-1.2-5.5C521.7,275.4,518.8,271.9,518.6,272z"/>
<linearGradient id="SVGID_1_" gradientUnits="userSpaceOnUse" x1="564.9185" y1="865.97" x2="564.9185" y2="197.0055" gradientTransform="matrix(1 0 0 1 -51.45 -59.5699)">
	<stop  offset="0" style="stop-color:#808080;stop-opacity:0.25"/>
	<stop  offset="0.54" style="stop-color:#808080;stop-opacity:0.12"/>
	<stop  offset="1" style="stop-color:#808080;stop-opacity:0.1"/>
</linearGradient>
<path class="st10" d="M815.5,401.8c2.2,2.5,4.6,4.8,7.2,6.9l19.5,16.6c3.5,3,7,6,11.4,7.4c5.3,1.7,11,0.8,15.6-2.4l-0.3-0.1l0.3-0.2
	c-3.3-1.1-6.7-2.2-9.4-4.3c-2.3-1.7-3.7-4.2-4.1-7l0,0c0-0.1,0-0.3,0-0.4c0-0.4,0-0.8,0.1-1.1c4.2-0.4,8.2-1.8,11.7-4.1l-0.3-0.1
	l0.3-0.2c-10.4-3.3-17.6-13.1-20.8-23.4s-3.3-21.3-3.6-32.1s-1.2-21.9-5.8-31.6c-1.8-3.7-4-7.1-4.8-11.1c-0.2-1.2-0.3-2.4-0.3-3.6
	c0.1-3.9,1.2-7.7,2.2-11.5c2.3-8.4,4.1-16.9,5.5-25.5c0.5-3.1,0.8-6.1,0.9-9.2c0.1-3-0.4-6-1.4-8.9c-4.6-11.9-20.5-17.5-22.9-30
	c-0.3-1.7-0.4-3.4-0.4-5.1c0-0.9,0-1.9,0-2.8s0-2-0.1-2.9c-0.7-8.8-6.1-16.4-11.4-23.6c-6.3-8.6-13-17.5-22.7-22.1
	c-7.5-3.6-17.6-4.8-26.6-3.9c-4-3.5-8.5-6.5-13.2-8.9c-6.9-3.8-14-7.6-21.6-8.4c-9.7-1.1-19.2,2.6-28.9,3.3c-13.2,0.9-26.1-4-39.2-5
	s-28.3,3.4-34.2,16.7c-1.4,3.2-2.2,6.6-2.5,10.1l0,0c-0.1,0.7-0.1,1.3-0.1,2v0.1c-0.1,2.7,0,5.4,0.2,8.1v0.3c0,0.5,0.1,1.1,0.2,1.6
	c0,0.2,0,0.3,0,0.5c0,0.5,0.1,1,0.2,1.5l0.1,0.5c0.1,0.6,0.2,1.3,0.2,1.9c0.2,1.3,0.4,2.6,0.8,3.8c0.2,0.7,0.6,1.4,1.1,2
	c1.4,1.8,3.6,2.4,5.8,2.7l1.8,0.2c-0.2,0.4-0.4,0.7-0.5,1.1c-4,8.4-6,17.5-6,26.8c0,31.5,23.3,57.5,53.7,62.3l1.8,2.3
	c11.2,14.1,25.3,32.8,32,46.3c-7.7,9.6-16.8,26.6-19.4,55.2l-3.8,8.9c-8,11.5-10.1,28.2-8,43.7c-2.3,8.4-4.8,18.9-6.6,27.6
	c-13.3-3-58.7-10.2-69.5-17.3l-31.5-14.8c0,0-41-28.6-63.1-19.1c-8.4-10.4-21.2-21.2-26.6-25.3c-9.4-7-32.8-34.6-32.8-34.6
	L409.1,313c-0.1-5.6-0.7-10.4-2.2-12.5c-4.3-5.8-27.2-18.6-31.8-15.8s-8.4-6-8.4-6l-0.4-0.2c-0.9-0.5-3.3-1.9-6.7-3.7
	c-0.2-4.1-0.1-8.1,0.3-12.2c0.1-0.7,0.2-1.4,0.3-2c25-0.9,46.3-18.3,52.2-42.5c0.2-0.6,0.3-1.3,0.4-1.9c3.3,0.8,6.8-0.2,9.2-2.7
	c3.2-3.4,3.3-8.7,2.3-13.3s-3-8.9-3.5-13.6c-0.6-6.4,1.6-13-0.5-19c-1.7-5.1-6.3-8.8-11.1-11.3s-10.2-3.9-15.1-6.1
	c-4.7-2.1-9.1-4.9-14.1-6.6c-6.4-2.1-13.2-2.2-20-2.1c-4.2-1.7-8.6-3.3-13.1-3.9c-5-0.6-10.5,0.4-14.3,3.7c-3,2.7-5.4,6.9-9.5,7.1
	c-2,0.1-3.8-0.9-5.6-1.8c-5-2.4-11.4-3.8-16-0.6c-3.7,2.6-5,7.3-5.6,11.7s-0.7,9-2.9,12.9c-1.3,2.4-3.3,4.4-5,6.6
	c-4.2,5.6-6.1,12.5-5.5,19.5v0.2c-0.2-1-0.5-1.9-0.6-2.9c0,0.7,0,1.5,0.1,2.2c0.4,3.4,1.2,6.8,2.2,10.1l4.1,14.5
	c2.1,7.4,4.2,14.8,8.2,21.4c1.6,2.6,3.4,4.9,5.6,7c3.4,3.6,7.8,6.1,12.6,7.3c1.7,0.4,3.4,0.5,5.1,0.3c0,0.2,0,0.4-0.1,0.6
	c-0.4-0.1-0.8-0.1-1.1-0.2c-1.6-0.3-3.3-0.3-4.9,0.1c-7.9,2.8-10.3,11.4-11,14.7c-0.2,0.9-0.2,1.4-0.2,1.4s0.1,0.5,0.3,1.4l-0.1,0.3
	c-0.2,0.9-0.2,1.4-0.2,1.4s0.1,0.5,0.3,1.4h-2.1l-34.5,4.5c-7.9-0.5-15.4-0.7-19.4,0.3c-0.3,0.1-0.7,0.2-1,0.3
	c-5,1.7-27.9,17.5-48.5,32.1c0-0.4,0-0.8-0.1-1.2l-5.9,4.2c0,0.4,0,0.8,0,1.2c-1.5,1-2.9,2.1-4.3,3.1c-6.3,4.5-12,8.6-16.2,11.7
	c-5.2,3.7-8.4,6.1-8.4,6.1s-1.9,0.6-3.2,3.5c-1.6,3.8-2.2,11.3,3.7,26.1c10.4,26.4,12.7,44.3,12.7,44.3c-2.8,0.3-5.6,1-8.2,2
	c-3.6,1.4-7.4,3.9-8.9,8c-1,2.9-1,6-0.1,8.9c4.8,17,84.6,114.1,84.6,114.1l1,0.1c4.1,0.4,8.2,0.4,12.3,0c3.7-0.4,7.2-1.3,8.8-3.2
	c0,0,17.7,22.7,43.7,7.2c-0.2,20.6-0.7,35.7,2.6,43.3c5.1,11.8,5.1,38.7,5.1,38.7l4.8,0.2c-0.3,1-0.5,2-0.9,3
	c-2.2,7.4-5.5,16.3-9,18.4c-5.9,3.6-3.1,65.5-2.8,70.8l0,0c0,0.2,0,0.3,0,0.3l-0.3,25v2c-0.7-1-1.4-2-2-3.1c0,0-9.4,9-9.6,28
	s0.2,19.6,0.2,19.6s38-1.5,45.1,1.2s66.8-2.3,66.8-2.3s2.2-5.7-4.1-10.2c10.1-0.7,21.2-2.7,27.7-7.4c14.2-10.3-28.8-18.3-31.8-19.9
	s-17.9-14.7-24-19.7c-1.9-1.4-4-2.2-6.3-2.4l0.8-22.4c9.1-10.3,19.1-67.2,19.1-67.2c3.2-2.7,4.6-9.3,5.2-13.3c2.4-0.8,4.1-3,4.2-5.6
	l0,0c10.5,0.3,23.6,0.3,26.2-2.2c4.3-4.3,3.8-18.9,3.8-18.9L423.3,453l-0.4-0.6c1-7.1,1-14.2,0.1-21.3c13.7,3.9,24.4,6.6,24.4,6.6
	s20.6,3.8,35.1,7c-2.4,2.5-4.2,5.5-5.2,8.8c-13,37,60.7,35.5,60.7,35.5l34.8,16.1l81.9,26.8c-26.3-7.8-56.4-16.9-76.9-23.2
	c-2-0.6-4.1-1.1-6.1-1.5c-18.8-3.4-38.3,3.4-50.2,18.5c-0.1,0.2-0.3,0.4-0.4,0.5c-5.9,7.6-6.1,18.2-0.5,26.1
	c3.1,4.4,7.3,10.3,12.2,17.2c-10.4,3.1-27.6,11.9-17.1,34.4c14.5,31.2,53.3,49,53.3,49s25.4,7.3,32,15.3c1.8,2.3,9,7.3,18.3,13.3
	c6,6.3,10.7,10.5,13.5,11.4c11.1,3.7,32.8,21.3,48.1,34.5l-2.3,31.6l-0.2,1.9l-0.9-0.8c0,0-6.8,14-26.3,18.7
	c-3.9,0.9-7.4,3.1-9.8,6.4l-0.1,0.1l-0.6,0.8l-0.4-0.3c-4,5.6-5.9,13.8,9.2,16.1c23.6,3.5,50-1.5,50-1.5l23.6-21.8
	c2.6,2.2,5.7,3.8,9,4.7c17.6,4,67.1,23.1,67.1,23.1c0-5.4,43.7-74.5,43.7-74.5c59-111.7-5.2-195.1-12.2-203.8l-0.6-0.8l-0.5-9.3
	l-0.1-2.1c0,0,31.8-14.1,19.6-20.8s-19-38.9-30.5-52.3c-9-10.5-8.5-34.7-9.4-55.4c1,5.1,3.2,9.9,6.5,14c0.1,0.1,0.2,0.2,0.2,0.2
	l-0.8-0.7C815.1,401.2,815.3,401.5,815.5,401.8z M423.2,393.2c4.1,4.4,11.3,10,16,13.6c-5.7-2.8-10.1-5.1-13.5-7
	C424.8,397.6,424,395.4,423.2,393.2L423.2,393.2z M301.9,288.5c-1,2.9-2.8,5.5-5.1,7.5l-2-8.6C297.3,287.8,299.8,288.2,301.9,288.5z
	 M701.5,525.6c0.8-1.7,1.6-3.4,2.4-5c3.5-1.1,6.6-3.3,8.9-6.2c1.7,6,3,12.2,3.9,18.5c0,0.3,0,0.5,0,0.5c0,2.5-0.4,5-1.1,7.4
	c-0.9,2.9-2.6,5.7-5.7,6c-1.3,0.1-7.5-1.4-16.9-3.9c-2.7-0.7-5.7-1.6-8.9-2.5C689.2,540.1,696.1,537.3,701.5,525.6z M779.8,314.6
	c-1.9-3-5.8-4.9-10.5-6c-0.9-0.6-2.2-1.5-3.9-2.8c-8.4-6.1-25.2-20-32.9-37.7c2.1-0.6,4.2-1.4,6.3-2.3c3.1-1.4,6.1-3.2,8.8-5.4
	c0.9-0.7,1.8-1.5,2.7-2.2c2.2-2,4.2-4.2,6-6.5c0.7-1,1.4-2,2-3c1-1.5,1.9-3.1,2.7-4.8c1.8-3.8,3.2-7.9,4.2-12c0.4-1.7,0.7-3.4,1-5
	s0.5-3.4,0.7-5.1c0.6-6.1,0.9-12.2,0.7-18.3c0-0.3,0-0.6,0-0.9c0-0.1,0-0.2,0-0.3l0,0c0-6.2-0.7-12.3-2-18.4
	c0.5,0.2,0.9,0.3,1.3,0.5c0.7,0.4,1.4,0.8,2.1,1.2c-0.2-0.2-0.3-0.5-0.5-0.7c2.9,1.9,5.1,4.8,7,7.7c18,28.1,22.4,62.8,11.8,94.4
	c-1.5,4.3-3.2,8.6-3.6,13.1c-1.4,16.1,14,28.4,19.7,43.5c2.9,7.6,3.3,16,3.7,24.3C802.8,347,787,326.2,779.8,314.6L779.8,314.6z"/>
<path class="st11" d="M397.5,633.2c0,0-0.8,12.5-5.5,16.5c0,0-9.8,56.5-18.8,66.8l-1.5,5.8l-37.5-4.2l7.5-50l7-46L397.5,633.2z"/>
<path class="st12" d="M397.5,633.2c0,0-0.8,12.5-5.5,16.5c0,0-9.8,56.5-18.8,66.8l-1.5,5.8l-37.5-4.2l7.5-50l7-46L397.5,633.2z"/>
<polygon class="st13" points="357.1,717.2 373.3,716.4 372.4,741.9 360.1,750.2 337.8,745.3 345.9,711.3 "/>
<polygon class="st12" points="357.1,717.2 373.3,716.4 372.4,741.9 360.1,750.2 337.8,745.3 345.9,711.3 "/>
<path class="st14" d="M360.1,739.9c0,0,12.7-3.7,18.7,1.1s20.7,17.9,23.6,19.5s45.2,9.6,31.2,19.8s-49.8,7.3-49.8,7.3
	s-23.4-6.8-24.1-7.2s-15-7.3-15.5-7.8s4.1-33,4.1-33L360.1,739.9z"/>
<path class="st12" d="M360.1,739.9c0,0,12.7-3.7,18.7,1.1s20.7,17.9,23.6,19.5s45.2,9.6,31.2,19.8s-49.8,7.3-49.8,7.3
	s-23.4-6.8-24.1-7.2s-15-7.3-15.5-7.8s4.1-33,4.1-33L360.1,739.9z"/>
<path class="st8" d="M323.3,401.9l-0.8,46.5l-1.7,99.2l-1,0.9C290,574.3,269,547,269,547c-1.6,1.9-5,2.8-8.7,3.1
	c-4,0.4-8.1,0.4-12.1,0l-1-0.1c0,0-78.5-96.6-83.3-113.6c-0.9-2.9-0.9-6,0.1-8.8c1.6-4.1,5.3-6.5,8.8-7.9c2.6-1,5.3-1.7,8.1-2
	c0,0-2.2-17.8-12.5-44c-5.8-14.8-5.2-22.2-3.6-26c1.2-2.9,3.1-3.5,3.1-3.5s3.2-2.3,8.2-6c4.2-3.1,9.8-7.1,16-11.6l5.8-4.1
	c21.2-15.2,46.8-33.1,52-35c0.3-0.1,0.7-0.2,1-0.3c10.7-2.6,46.7,2.8,46.7,2.8L323.3,401.9z"/>
<path class="st3" d="M323.3,401.9l-0.8,46.5c-35.6-10.5-68.6-80-73-85.5c-3.7-4.8,0.1-57.8,1.5-75.8c10.7-2.6,46.7,2.8,46.7,2.8
	L323.3,401.9z"/>
<path class="st4" d="M323.3,401.9l-0.8,46.5c-35.6-10.5-68.6-80-73-85.5c-3.7-4.8,0.1-57.8,1.5-75.8c10.7-2.6,46.7,2.8,46.7,2.8
	L323.3,401.9z"/>
<path class="st1" d="M731.5,311.4c0,0-27.8,14.2-31.2,70.2c0,0-4.5,28.5-7,33.5s-14.5,52.2-13,58c0,0-2.5,5.8-11.8,3.2
	s-59.2-10.2-70.5-17.8l-31-14.8c0,0-60.5-42.8-73.2-6s59.8,35.3,59.8,35.3l34.2,16l103.8,34.2c0,0,13.8,6.2,23-13.8
	c5.9-12.6,12.9-24.6,21-36c0,0,21-59,20.8-69s22.5-33.8,22.5-33.8s4.5-63-32.5-61.8L731.5,311.4z"/>
<path class="st12" d="M731.5,311.4c0,0-27.8,14.2-31.2,70.2c0,0-4.5,28.5-7,33.5s-14.5,52.2-13,58c0,0-2.5,5.8-11.8,3.2
	s-59.2-10.2-70.5-17.8l-31-14.8c0,0-60.5-42.8-73.2-6s59.8,35.3,59.8,35.3l34.2,16l103.8,34.2c0,0,13.8,6.2,23-13.8
	c5.9-12.6,12.9-24.6,21-36c0,0,21-59,20.8-69s22.5-33.8,22.5-33.8s4.5-63-32.5-61.8L731.5,311.4z"/>
<path class="st11" d="M438,360.1c1.5,1.8,8.5,5.4,8.5,5.4s23,27.4,32.2,34.4s39.5,33.8,33.4,43.9s-13,7.9-13,7.9L445,414
	c0,0-19-13.6-22.9-20.1s-8.6-20.1-8.6-20.1L438,360.1z"/>
<path class="st12" d="M438,360.1c1.5,1.8,8.5,5.4,8.5,5.4s23,27.4,32.2,34.4s39.5,33.8,33.4,43.9s-13,7.9-13,7.9L445,414
	c0,0-19-13.6-22.9-20.1s-8.6-20.1-8.6-20.1L438,360.1z"/>
<polygon class="st15" points="407.7,313.3 446.5,365.4 411.5,379.1 397,335.4 "/>
<polygon class="st12" points="407.7,313.3 446.5,365.4 411.5,379.1 397,335.4 "/>
<path class="st2" d="M417.8,446.2l7,10.2l6,153.5c0,0,0.5,14.5-3.8,18.8s-39,1.5-39,1.5s1.2-156.5,1.8-159.5
	S417.8,446.2,417.8,446.2z"/>
<path class="st4" d="M417.8,446.2l7,10.2l6,153.5c0,0,0.5,14.5-3.8,18.8s-39,1.5-39,1.5s1.2-156.5,1.8-159.5
	S417.8,446.2,417.8,446.2z"/>
<path class="st11" d="M371,640.2c-2.3,5.6-4.9,11-8,16.2c0,0-6.5,37.1-9.3,40.5c-2,2.5-2.9,21.2-3.2,30.9c-0.1,3.5-0.2,5.9-0.2,5.9
	L312.1,752l-0.2-24.1c0,0,0-0.1,0-0.3l0,0c-0.2-5.3-3-66.8,2.8-70.4c3.4-2.1,6.6-11,8.8-18.3c1.7-5.6,2.7-10.3,2.7-10.3
	s42.5-2.8,46,1.8C373.5,632,372.6,635.9,371,640.2z"/>
<path class="st4" d="M371,640.2c-17.2-0.4-38.8-1.1-47.5-1.4c1.7-5.6,2.7-10.3,2.7-10.3s42.5-2.8,46,1.8
	C373.5,632,372.6,635.9,371,640.2z"/>
<path class="st2" d="M320.8,412.7c0,0-11.8,62.5-9.5,102.8s-1.8,70,3.2,81.8s5,38.5,5,38.5s68,2.5,75,1.5s6.8-6.2,6.8-6.2
	s-4.8-41.5-0.2-54.5s3.8-52.8,3.8-52.8l19-64c0,0,5.8-28.8-6.2-40.5S320.8,412.7,320.8,412.7z"/>
<path class="st1" d="M724.3,743l-3,4.4L702.8,775l-15.8,4.8l-11.8-11.5l0.6-7.6l2.9-39.4c0,0-72.7-42.8-79.2-50.8
	S568,655.2,568,655.2s-38.2-17.8-52.5-48.8s23.8-35.8,23.8-35.8L682,707.2L724.3,743z"/>
<polygon class="st4" points="721.3,747.3 702.8,774.9 687,779.7 675.3,768.2 675.9,760.6 688.8,771.7 713,743.4 "/>
<path class="st2" d="M741.8,759l-45.2,42.2c0,0-26,5-49.2,1.5c-14.9-2.2-12-10.4-8.1-16l0.1-0.1c2.3-3.2,5.8-5.5,9.6-6.3
	c19.2-4.6,25.9-18.6,25.9-18.6l14,12l24.2-28.3l17.9,8.4L741.8,759z"/>
<path class="st16" d="M741.8,759.4l-45.2,42.3c0,0-26,5-49.2,1.5c-14.9-2.2-13-10.4-9.1-16c4.5,3.6,9.9,5.8,15.6,6.5
	c12.8,1.2,32,0,32,0l45.2-39.3L741.8,759.4z"/>
<path class="st11" d="M368.2,253c-3.7,1.8-5.4,7.5-6,14c-1.1,11.1,0.7,24.4,0.7,24.4s-50-13.7-44.7-16.3c3.1-1.5,4.7-12.7,5.5-21.8
	c0.6-6.8,0.8-12.5,0.8-12.5S378.2,248,368.2,253z"/>
<path class="st1" d="M766.2,313.7c0,0-60.7,57.3-58.7,40.7c0.3-2.3-0.5-5.5-2.1-9.3c-5.6-13.5-21.1-34.5-33.2-49.9
	c-8.9-11.3-16-19.5-16-19.5s75.3-63.3,69.3-27.3c-1.3,8.2-0.1,16.6,3.3,24.2c7.5,17.7,24.2,31.6,32.5,37.7
	C764.3,312.5,766.2,313.7,766.2,313.7z"/>
<path class="st4" d="M717.2,259.4c-1.1,1.4-5.1,6.1-6.3,7.3c-11.4,11.9-12.9,29-30.7,29c-2.7,0-5.3-0.2-8-0.5
	c-8.9-11.3-16-19.5-16-19.5s75.3-63.3,69.3-27.3C724.1,256.9,714,251.9,717.2,259.4z"/>
<path class="st1" d="M742.9,231c0,34.6-28,62.7-62.7,62.7c-34.6,0-62.7-28-62.7-62.7c0-34.6,28-62.7,62.7-62.7l0,0
	c34.5-0.1,62.5,27.7,62.7,62.2C742.9,230.7,742.9,230.9,742.9,231z"/>
<path class="st4" d="M766.2,313.7c0,0-60.7,57.3-58.7,40.7c0.3-2.3-0.5-5.5-2.1-9.3l8.8-20.7c10.7-9.4,24.5-14.6,38.8-14.7
	c2.6,0,5.2,0.2,7.8,0.5l0.5,0.1C764.3,312.5,766.2,313.7,766.2,313.7z"/>
<path class="st17" d="M837.5,733.7c0,0-43,68.7-43,74c0,0-48.7-19-66-23s-33.7-40.3-33.7-40.3s-46-43.3-64-49.3
	c-15.3-5.1-88.7-108.6-110.5-139.8c-5.5-7.8-5.3-18.3,0.5-26l0.4-0.5c11.8-14.8,30.8-21.9,49.4-18.4c2,0.4,4,0.9,6,1.5
	c31.5,9.7,86,26.5,113.5,34c9.2,2.5,15.3,4,16.6,3.9c3-0.3,4.7-3,5.6-6c0.7-2.4,1.1-4.9,1.1-7.4c0,0,0-0.2,0-0.5
	c-0.8-6.4-2.2-12.6-4-18.8c-3.2-11-8.8-23.9-18-30.1c-7.7-5.1-13.8-16.4-16.9-29.5c-4.3-17.7-3.3-38.7,6.3-52.5l9.2-21.8l15.5-36.5
	l8.6-20.3c10.7-9.4,24.5-14.6,38.8-14.7c2.6,0,5.2,0.2,7.8,0.5c6.6,0.9,12.4,2.9,14.8,6.8c7.3,12,24,34,27.3,56s-0.7,58,10.7,71.3
	s18,45.3,30,52S824.2,519,824.2,519l0.1,2.1l0.5,9.2c0,0,0.2,0.2,0.6,0.8C832.5,539.8,895.5,622.7,837.5,733.7z"/>
<path class="st2" d="M825.5,531.1c-13.1,2.8-41.9,8.7-54.7,11.4l-2.2,0.5c-0.8,0.2-1.6,0.3-2.5,0.4c-12.9,1.8-40.8,0.9-53.6,0.4
	c0.7-2.4,1.1-4.9,1.1-7.4c0,0,0-0.2,0-0.5c9.7-0.6,32.8-2.5,52.5-6.5c1.6-0.3,3.2-0.7,4.8-1c2.2-0.5,4.4-1.1,6.5-1.7
	c17.7-5,36.4-5.7,47-5.6l0.5,9.2C824.9,530.4,825.1,530.6,825.5,531.1z"/>
<path class="st18" d="M770.8,528.3v14.1l-2.2,0.5c-0.8,0.2-1.6,0.3-2.5,0.4v-13.9C767.7,529.1,769.2,528.7,770.8,528.3z"/>
<path class="st4" d="M783,555.4c0,0-26.8,61.2-43,67.2s-56.8,27.2-56.8,27.2s23.2,20.5,47.5-2S790,565.4,783,555.4z"/>
<path class="st4" d="M812.3,547.2c0,0,2.5,23.2-1,27.5S812.3,547.2,812.3,547.2z"/>
<path class="st4" d="M826.8,562.4c0,0,13.5,141.5-53.5,142.2C773.3,704.7,836,642.4,826.8,562.4z"/>
<path class="st4" d="M843.8,596.4c0,0,19.2,74.2-6,82.8C837.8,679.2,851,640.7,843.8,596.4z"/>
<path class="st4" d="M724,577.4c-1.2,0-52,8.8-41,15.8S724,577.4,724,577.4z"/>
<path class="st4" d="M759,477.2c0,0,41.5,36.8,33.5,40.8"/>
<path class="st4" d="M755.5,489c0,0,24,29.5,21.2,31.2"/>
<path class="st4" d="M806.8,484.4c0,0,11,13.8,9.2,16.8"/>
<path class="st4" d="M817.8,477.2c0,0,15.8,12.2,12.2,17"/>
<path class="st1" d="M730.3,328.2c0,0,51.2,4,49,45.2s-40.5,51.8-40.5,51.8L689,410.9C689,410.9,711.3,330.9,730.3,328.2z"/>
<path class="st4" d="M576.8,511.8c31.5,9.7,86,26.5,113.5,34c-3.6,1.9-7.9,2.1-11.7,0.7l-103.8-34.2l-4.1-1.9
	C572.8,510.7,574.8,511.2,576.8,511.8z"/>
<path class="st4" d="M752.3,409.8c-4.9,6.5-9.2,13.5-9,17.9c0.1,3.1-2,11.2-4.8,20.7c-7.2,23.9-16.9,46.9-29,68.7
	c-3.2-11-8.8-23.9-18-30.1c-7.7-5.1-13.8-16.4-16.9-29.5c2.4-9.5,4.7-17.5,5.7-19.4c2.5-5,7-33.5,7-33.5c0.4-7.2,1.4-14.4,2.8-21.5
	c3.6-17.3,9.8-29,15.5-36.5c6.8-9.1,13-12.3,13-12.3l14.8-2.2c17-0.6,25.2,12.4,29.2,26.5C767.4,376.3,763.3,395.2,752.3,409.8z"/>
<path class="st1" d="M715.5,330.4c0,0-27.8,14.2-31.2,70.2c0,0-4.5,28.5-7,33.5s-14.5,52.2-13,58c0,0-2.5,5.8-11.8,3.2
	s-59.2-10.2-70.5-17.8l-31-14.8c0,0-60.5-42.8-73.2-6s59.8,35.3,59.8,35.3l34.2,16l103.8,34.2c0,0,13.8,6.2,23-13.8
	c2.3-5,4.8-9.8,7.2-14.1c12.5-22.2,22.5-45.8,29.8-70.2c2.8-9.5,4.9-17.5,4.8-20.7c-0.1-4.4,4.2-11.4,9-17.9
	c11-14.6,15-33.5,10.1-51.1c-4-14.2-12.2-27.1-29.2-26.5L715.5,330.4z"/>
<path class="st4" d="M368.2,253c-3.7,1.8-5.4,7.5-6,14c-0.6,0-1.3,0-2,0c-13.4,0-26.4-4.9-36.5-13.8c0.6-6.8,0.8-12.5,0.8-12.5
	S378.2,248,368.2,253z"/>
<path class="st11" d="M415.2,210c0,30.4-24.6,55-55,55s-55-24.6-55-55s24.6-55,55-55C390.6,155.1,415.2,179.7,415.2,210z"/>
<path class="st4" d="M433.8,425.4c0,0-28.8,11.5-37.8,15.5s-60.5-5.2-60.5-5.2s-26.8-13.5-24.5-27S289.5,351,289.5,351
	s-0.8-39.2,9.8-46.8s6.5-23.2,6.5-23.2s0-0.5,0.2-1.4c0.6-3.3,3-11.8,10.8-14.6c1.6-0.4,3.2-0.5,4.8-0.1c7.5,1.1,19.7,6.7,29.9,11.8
	c8.4,4.2,15.4,8.2,16.9,9.1l0.3,0.2c0,0,3.8,8.8,8.2,6s27,10,31.2,15.8s1.2,32.8,0.5,39.5s4.3,26.8,9.8,38.2
	S433.8,425.4,433.8,425.4z"/>
<path class="st15" d="M433.8,422.4c0,0-28.8,11.5-37.8,15.5s-60.5-5.2-60.5-5.2s-26.8-13.5-24.5-27S289.5,348,289.5,348
	s-0.8-39.2,9.8-46.8s6.5-23.2,6.5-23.2s0-0.5,0.2-1.4c0.6-3.3,3-11.8,10.8-14.6c1.6-0.4,3.2-0.5,4.8-0.1c7.5,1.1,19.7,6.7,29.9,11.8
	c8.4,4.2,15.4,8.2,16.9,9.1l0.3,0.2c0,0,3.8,8.8,8.2,6s27,10,31.2,15.8s1.2,32.8,0.5,39.5s4.3,26.8,9.8,38.2
	S433.8,422.4,433.8,422.4z"/>
<path class="st2" d="M340.7,384c0,0-24.7,40-28.7,42.2l1.5,14c0,0,35.2-7.3,37.3-17.2s1-39.5,1-39.5L340.7,384z"/>
<path class="st19" d="M340.7,384c0,0-24.7,40-28.7,42.2l1.5,14c0,0,35.2-7.3,37.3-17.2s1-39.5,1-39.5L340.7,384z"/>
<path class="st4" d="M375.4,333.1c0,0,4.4,16.9,11.2,22.6S375.4,333.1,375.4,333.1z"/>
<path class="st11" d="M332.5,377.6c0.6,1.1,21.8,29.9,44,40.5s71.9,23.1,71.9,23.1s40.2,7.5,47.1,10.4s15.6-10-27.5-28.4
	s-51.5-26.5-51.5-26.5S379,378.4,373,369.4S332.5,377.6,332.5,377.6z"/>
<path class="st4" d="M348.3,517.4c0.8-0.5,18.8-19.8,21-11.5S348.3,517.4,348.3,517.4z"/>
<path class="st4" d="M358.8,479.4c-0.2,0.8-2.8,22-10,24.5"/>
<path class="st4" d="M366.3,485.2c0,0-6.5,22.8-14.8,24.2"/>
<path class="st4" d="M333.3,553.4c0,0,11,0.2,12.5-6.8"/>
<path class="st4" d="M348.3,599c1.5,0.2,25,15.2,19,18.2S348.3,599,348.3,599z"/>
<path class="st4" d="M350.4,725.6v2.3c-0.1,3.5-0.2,5.9-0.2,5.9L312,752l-0.2-24.1c0,0,0-0.1,0-0.3l0,0V726l15.3,0.5L350.4,725.6z"
	/>
<polygon class="st13" points="357.6,760.6 325.7,772.8 311.4,764.3 311.5,752.7 311.9,727.9 327.2,728.4 350.4,727.6 350.4,745 "/>
<path class="st4" d="M357.5,760.6l-31.9,12.2l-14.3-8.5l0.1-11.6c4.2,5.5,10.7,8.8,17.6,9.1c0,0,11.2-14,18-18.1
	c1-0.6,2.2-0.7,3.3-0.4v1.6L357.5,760.6z"/>
<path class="st14" d="M329.1,763.8c0,0-13,0.2-19.5-12.2c0,0-9.3,9-9.4,27.8s0.2,19.5,0.2,19.5s37.4-1.5,44.4,1.1s65.7-2.3,65.7-2.3
	s3.9-10.2-13.8-13.8s-32.4-22.5-32.9-23.3s-9.8-19-16.6-15S329.1,763.8,329.1,763.8z"/>
<path class="st4" d="M363.6,149.3l-3.7-0.5l2.3-0.1L363.6,149.3z"/>
<path class="st4" d="M415.2,210c0,4.3-0.5,8.5-1.5,12.7c-0.8-0.2-1.6-0.6-2.4-1c-1.1-0.7-2.1-1.6-3.4-1.5c-0.7,0.1-1.4,0.4-2,0.9
	c-5.9,4.3-10.3,11.5-17.5,12.8c0.7-2.1,0.8-4.4,0.3-6.5c-3.1,3.1-7.5,4.5-11.9,3.8c0.5-1.2,0.6-2.6,0.2-3.9
	c-5.1,2.8-10.3,5.3-15.8,7.3c-0.2-1-0.4-1.9-0.6-2.9c-7.7,3.7-7.1,16.4-14.7,20.2c-4.6,2.2-11,0.6-14.1,4.6
	c-0.1,0.2-0.2,0.3-0.3,0.5c-25.9-15.9-34.1-49.7-18.2-75.6s49.7-34.1,75.6-18.2C405.2,173.2,415.2,190.9,415.2,210L415.2,210z"/>
<path class="st20" d="M363.6,147.3c-4.6-1.9-9.3-3.8-14.3-4.4s-10.3,0.4-14.1,3.7c-3,2.6-5.4,6.9-9.4,7c-2,0.1-3.8-0.9-5.5-1.8
	c-5-2.4-11.2-3.8-15.8-0.6c-3.6,2.6-5,7.2-5.5,11.6s-0.7,9-2.8,12.9c-1.3,2.4-3.2,4.4-4.9,6.6c-4.1,5.6-6.1,12.4-5.4,19.3
	c0.4,3.4,1.1,6.8,2.2,10.1l4.1,14.4c2.1,7.3,4.2,14.7,8.1,21.2s10,12.1,17.4,13.8c4.5,1,9.9,0.2,12.4-3.6c0.6-1,1-2.1,1.8-3
	c3.1-4,9.6-2.4,14.1-4.6c7.7-3.7,7.1-16.4,14.7-20.2l0.6,2.9c5.4-2,10.7-4.5,15.8-7.3c0.4,1.3,0.4,2.7-0.2,3.9
	c4.3,0.7,8.7-0.7,11.8-3.8c0.5,2.2,0.4,4.4-0.3,6.5c7.2-1.4,11.6-8.5,17.5-12.8c0.6-0.5,1.3-0.8,2-0.9c1.3-0.1,2.3,0.8,3.4,1.5
	c3.8,2.3,8.7,1.7,11.8-1.5c3.1-3.4,3.3-8.7,2.3-13.2s-3-8.9-3.4-13.5c-0.6-6.3,1.6-12.9-0.5-18.9c-1.7-5.1-6.2-8.8-11-11.2
	s-10-3.8-14.9-6c-4.7-2.1-9-4.9-13.8-6.5c-7-2.4-14.6-2.2-22-2"/>
<path class="st8" d="M364.5,333.5c0,0,8-53.8-60.5-51.2l-34.5,4.6c0,0,32.9,5.9,40.8,6.8l0.8,0.1
	C318.5,295.2,343.9,293.5,364.5,333.5z"/>
<path class="st4" d="M320.8,548.2v-0.6C348.9,523.3,320.8,548.2,320.8,548.2z"/>
<path class="st2" d="M260.4,550.1c-4,0.4-8.1,0.4-12.1,0l-84.1-122.5c1.6-4.1,5.3-6.5,8.8-7.9L260.4,550.1z"/>
<path class="st2" d="M205.8,418.9l-4,4.8c0,0-30.3-50.4-36.9-76c1.2-2.9,3.1-3.5,3.1-3.5s3.2-2.3,8.2-6
	C178.2,350.2,184.6,379.6,205.8,418.9z"/>
<path class="st2" d="M228.1,403.4l-8,4.5c-21.8-25.6-23.7-68.5-23.5-85.6l5.8-4.1C203.1,340.6,228.1,403.4,228.1,403.4z"/>
<path class="st4" d="M249.1,398.9c-0.2,3.2-9.5,36.2,4,41.8C266.5,446.2,249.1,398.9,249.1,398.9z"/>
<path class="st4" d="M278,455.7c0.5,1.8,5,58.8,14.8,54.3s4.5-69.5,4.5-69.5L278,455.7z"/>
<path class="st4" d="M742.9,231c0,16.2-6.2,31.7-17.5,43.4c-4.6,1-9.3,1.1-13.9,0.2c-2.4-0.3-4.6-1.2-6.5-2.6
	c-1.8-1.7-3.3-3.8-4.2-6.1c-3.7-7.9-5.5-16.9-10.6-23.6s-15.5-9.7-20.5-2.8c-2.7,3.7-3.1,9.5-6.7,12.1c-4.3,3.1-10-0.5-13.3-5
	c-9.9-13-6.5-38.6-25.4-42.1l-0.8-0.1c14.7-31.3,52-44.8,83.4-30.1C728.8,184.6,742.9,206.7,742.9,231z"/>
<path class="st21" d="M625.2,203.5c-3.1-0.6-6.6-0.5-8.7-3.1c-1.2-1.6-1.6-3.7-1.8-5.8c-1.2-8.9-1.9-18.4,1.6-26.4
	c5.8-13.2,20.7-17.6,33.6-16.6s25.7,5.8,38.6,5c9.5-0.6,18.9-4.3,28.4-3.2c7.5,0.8,14.5,4.6,21.3,8.4c6.3,3.6,12.8,7.4,17.3,13.6
	c6.6,9.1,7.8,21.6,8,33.3c0.2,13.8-0.8,28.1-6.5,40.2c-8.4,17.6-27.1,28.1-44.5,24.9c-2.4-0.3-4.6-1.2-6.5-2.6
	c-1.8-1.7-3.3-3.8-4.2-6.1c-3.7-7.9-5.5-16.9-10.7-23.6s-15.5-9.7-20.5-2.8c-2.7,3.7-3.1,9.5-6.7,12.1c-4.3,3.1-10-0.6-13.3-5
	C640.7,232.7,644.1,207.1,625.2,203.5z"/>
<path class="st21" d="M777.4,174.5c9.5,4.6,16.1,13.4,22.3,21.9c5.2,7.1,10.5,14.7,11.2,23.4c0.3,3.6-0.3,7.2,0.4,10.7
	c2.4,12.4,18,18,22.6,29.8c2.1,5.6,1.5,11.8,0.5,17.7c-1.3,8.5-3.1,17-5.4,25.3c-1.3,5-2.9,10.2-1.8,15.3c0.8,3.9,3,7.4,4.8,11
	c4.6,9.7,5.4,20.7,5.7,31.5s0.3,21.6,3.5,31.9s10.3,19.9,20.5,23.2c-3.4,2.3-7.4,3.8-11.5,4.1c-0.6,3.4,1.3,6.8,4,8.9s6,3.2,9.2,4.3
	c-4.5,3.1-10.1,4-15.3,2.4c-4.3-1.4-7.8-4.4-11.2-7.3l-19.2-16.5c-2.6-2.1-4.9-4.4-7.1-6.9c-12.4-15.4-5-38.8-11.9-57.3
	c-5.6-15-20.8-27.3-19.4-43.3c0.4-4.5,2.1-8.7,3.5-13c10.3-31.4,6.1-65.9-11.7-93.8c-2.2-3.4-4.7-6.8-8.4-8.6
	c-5.5-2.6-13.5-1.5-16.6-6.8c-1.7-2.8-2-7.7-2.2-10.8C754.2,169.3,767.9,169.9,777.4,174.5z"/>
<path class="st4" d="M290.4,343.8c4.7-30.8,43.1-41.9,63.5-18.4c5.9,6.8,11.1,14.3,14.1,21.8c10,25.2,10.8,27.5,10.8,27.5
	s-61.8,12-61.2,21l-28-44.8C289.5,350.9,289.8,348.1,290.4,343.8z"/>
<path class="st15" d="M290.4,340.8c4.7-30.8,43.1-41.9,63.5-18.4c5.9,6.8,11.1,14.3,14.1,21.8c10,25.2,10.8,27.5,10.8,27.5
	s-61.8,12-61.2,21l-28-44.8C289.5,347.9,289.8,345.1,290.4,340.8z"/>
<path class="st4" d="M307.8,301.3c0.8,1.2,30.2,37.2,45.8,42.4S307.8,301.3,307.8,301.3z"/>
<path class="st4" d="M181.1,417.7c0,0,78,92,88,129.3"/>
<path class="st22" d="M184.1,332.7c0,0,17,88,50,125s67,100,67,100"/>
<g class="st6">
	<path d="M425.1,204.7c0.1,2.9-0.9,5.8-2.8,8c-3.1,3.2-8,3.8-11.8,1.5c-1.1-0.7-2.1-1.6-3.4-1.5c-0.7,0.1-1.4,0.4-2,0.9
		c-5.6,4.1-9.9,10.8-16.5,12.6c0.2,1.8,0.1,3.6-0.5,5.2c7.2-1.4,11.6-8.5,17.5-12.8c0.6-0.5,1.3-0.8,2-0.9c1.3-0.1,2.3,0.8,3.4,1.5
		c3.8,2.3,8.7,1.7,11.8-1.5C425.8,214.3,426,209.1,425.1,204.7z"/>
	<path d="M421.1,185.9c0.1,0.8,0.2,1.6,0.4,2.4c0-5,1.2-10.2,0-15C421.5,177.4,420.6,181.8,421.1,185.9z"/>
	<path d="M387.8,219.8c-3.1,3.1-7.5,4.5-11.8,3.8c0.5-1.3,0.6-2.6,0.2-3.9c-5.1,2.8-10.3,5.3-15.8,7.3l-0.6-2.9
		c-7.7,3.7-7.1,16.4-14.7,20.2c-4.6,2.2-11,0.6-14.1,4.6c-0.7,0.9-1.1,2-1.8,3c-2.5,3.8-7.9,4.7-12.4,3.6
		c-7.4-1.7-13.5-7.3-17.4-13.8s-6-13.9-8.1-21.2l-4.1-14.4c-0.7-2.4-1.4-4.8-1.8-7.2c0,0.7,0,1.5,0.1,2.2c0.4,3.4,1.1,6.8,2.2,10.1
		l4.1,14.4c2.1,7.3,4.2,14.7,8.1,21.2s10,12.1,17.4,13.8c4.5,1,9.9,0.2,12.4-3.6c0.6-1,1-2.1,1.8-3c3.1-4,9.6-2.4,14.1-4.6
		c7.7-3.7,7.1-16.4,14.7-20.2l0.6,2.9c5.4-2,10.7-4.5,15.8-7.3c0.4,1.3,0.4,2.7-0.2,3.9c4.1,0.7,8.3-0.6,11.4-3.4
		C388.2,223.5,388.2,221.6,387.8,219.8z"/>
</g>
<path class="st4" d="M368.5,285.8c-5.4,3.1-17.9,10-20.4,8.8c-2.7-1.2-32.2-11.6-42-15c0.6-3.3,3-11.8,10.8-14.6
	c1.6-0.4,3.2-0.5,4.8-0.1l29.9,11.8C359.9,280.9,366.9,284.8,368.5,285.8z"/>
<path class="st15" d="M368.5,282.8c-5.4,3.1-17.9,10-20.4,8.8c-2.7-1.2-32.2-11.6-42-15c0.6-3.3,3-11.8,10.8-14.6
	c1.6-0.4,3.2-0.5,4.8-0.1l29.9,11.8C359.9,277.9,366.9,281.8,368.5,282.8z"/>
<path class="st4" d="M763.5,207.4c-0.3,11.3-1.8,22.5-6.5,32.4c-8.4,17.6-27.1,28.1-44.5,24.9c-2.4-0.3-4.6-1.2-6.5-2.6
	c-1.8-1.7-3.3-3.8-4.2-6.1c-3.7-7.9-5.5-16.9-10.7-23.6s-15.5-9.7-20.5-2.8c-2.7,3.7-3.1,9.5-6.7,12.1c-4.3,3.1-10-0.6-13.3-5
	c-9.9-13-6.5-38.6-25.4-42.1c-3.1-0.6-6.6-0.5-8.7-3.1c-1.2-1.6-1.6-3.7-1.8-5.8c-0.3-2.4-0.6-4.9-0.8-7.3
	c-0.3,5.5-0.1,10.9,0.8,16.3c0.3,2.1,0.6,4.2,1.8,5.8c2,2.6,5.6,2.6,8.7,3.1c18.9,3.6,15.5,29.1,25.4,42.1c3.3,4.4,9,8.1,13.3,5
	c3.6-2.6,4-8.4,6.7-12.1c4.9-6.9,15.3-4,20.5,2.8s7,15.8,10.7,23.6c0.9,2.3,2.4,4.4,4.2,6.1c1.9,1.4,4.1,2.3,6.5,2.6
	c17.4,3.1,36.1-7.3,44.5-24.9c5.8-12.1,6.8-26.4,6.5-40.2C763.5,208.2,763.5,207.8,763.5,207.4z"/>
<g class="st6">
	<path d="M828.9,255.4c2.1,5.6,1.5,11.8,0.5,17.7c-1.3,8.5-3.1,17-5.4,25.3c-1.3,5-2.9,10.2-1.8,15.3c0.8,3.9,3,7.4,4.8,11
		c4.6,9.7,5.4,20.7,5.7,31.5s0.3,21.6,3.5,31.9c2.1,7,6.1,13.2,11.5,18.1c-2.9-3.8-5.1-8.1-6.5-12.7c-3.2-10.2-3.2-21.2-3.5-31.9
		s-1.1-21.7-5.7-31.4c-1.7-3.6-4-7.1-4.8-11c-1-5.1,0.5-10.3,1.8-15.3c2.3-8.4,4.1-16.8,5.4-25.4c0.9-5.9,1.6-12.1-0.5-17.7
		c-1.7-4.5-5-8-8.6-11.4C826.9,251.1,828.1,253.2,828.9,255.4z"/>
	<path d="M861.8,416.7c-2.7-0.9-5.2-2.2-7.4-3.9c-2.8,1.5-5.9,2.4-9.1,2.6c-0.6,3.4,1.3,6.8,4,8.9c0.5,0.4,1.1,0.8,1.7,1.2
		c-0.7-1.5-0.9-3.1-0.7-4.7C854.4,420.4,858.3,419,861.8,416.7z"/>
	<path d="M757.8,184.3c-3.8-1.8-8.7-1.9-12.5-3.4c0.2,0.7,0.5,1.4,0.8,2c3.2,5.3,11.1,4.1,16.6,6.8c0.7,0.4,1.4,0.8,2,1.2
		C763.1,188.2,760.7,185.9,757.8,184.3z"/>
	<path d="M855.2,430.4c-3.8,1.6-8.1,1.8-12.1,0.6c-4.3-1.4-7.8-4.4-11.2-7.3l-19.2-16.5c-0.9-0.8-1.8-1.6-2.7-2.4
		c0.2,0.3,0.4,0.5,0.6,0.8c2.1,2.5,4.5,4.8,7.1,6.9l19.2,16.5c3.4,2.9,6.9,5.9,11.2,7.3c5.2,1.7,10.9,0.8,15.3-2.4
		C860.5,433.2,857.7,432,855.2,430.4z"/>
	<path d="M794.8,191.4c5.2,7.1,10.5,14.7,11.2,23.4c0.3,3.6-0.3,7.2,0.4,10.7c1.1,5.6,4.9,9.9,9.2,13.9c-2.1-2.5-3.5-5.4-4.2-8.5
		c-0.7-3.5-0.2-7.2-0.4-10.8c-0.7-8.7-6-16.3-11.2-23.4c-3.8-5.2-7.7-10.4-12.3-14.8C790,185,792.4,188.2,794.8,191.4z"/>
</g>
<path class="st4" d="M750.9,170.7c0,0-6,10,11,18.3l1-2.7L750.9,170.7z"/>
<path class="st18" d="M749.9,170.7c0,0-6,10,11,18.3l1-2.7L749.9,170.7z"/>
<path class="st8" d="M986.6,736.7c0,0,5.5,7.2-2.5,18s-14.7,20-12,26.8c0,0,12.1-20.2,22-20.4S997.5,748.8,986.6,736.7z"/>
<path class="st4" d="M986.6,736.7c0.5,0.7,0.9,1.5,1.1,2.2c9.6,11.3,14.7,21.9,5.5,22.1c-8.6,0.2-18.9,15.7-21.4,19.5
	c0.1,0.3,0.2,0.6,0.3,0.9c0,0,12.1-20.2,22-20.4S997.5,748.8,986.6,736.7z"/>
<path class="st23" d="M996.8,745.8c0,2.5-0.3,4.6-0.6,4.6s-0.6-2-0.6-4.6s0.3-1.3,0.7-1.3S996.8,743.3,996.8,745.8z"/>
<path class="st23" d="M1000.3,748.9c-2.2,1.2-4.2,1.9-4.3,1.6s1.5-1.5,3.7-2.8s1.3-0.3,1.5,0S1002.5,747.7,1000.3,748.9z"/>
<path class="st8" d="M957.5,736.7c0,0-5.5,7.2,2.5,18s14.7,20,12,26.8c0,0-12.1-20.2-22-20.4S946.7,748.8,957.5,736.7z"/>
<path class="st4" d="M957.5,736.7c-0.5,0.7-0.9,1.5-1.1,2.2c-9.6,11.3-14.7,21.9-5.5,22.1c8.6,0.2,18.9,15.7,21.4,19.5
	c-0.1,0.3-0.2,0.6-0.3,0.9c0,0-12.1-20.2-22-20.4S946.7,748.8,957.5,736.7z"/>
<path class="st23" d="M947.4,745.8c0,2.5,0.3,4.6,0.6,4.6s0.6-2,0.6-4.6s-0.3-1.3-0.7-1.3S947.4,743.3,947.4,745.8z"/>
<path class="st23" d="M943.9,748.9c2.2,1.2,4.2,1.9,4.3,1.6s-1.5-1.5-3.7-2.8s-1.3-0.3-1.5,0S941.6,747.7,943.9,748.9z"/>
<path class="st24" d="M949.1,780.5c0,0,15.4-0.5,20-3.8s23.6-7.2,24.8-2s23.1,26.3,5.7,26.4s-40.3-2.7-44.9-5.5
	S949.1,780.5,949.1,780.5z"/>
<path class="st19" d="M999.9,799.4c-17.3,0.1-40.3-2.7-44.9-5.5c-3.5-2.2-4.9-9.8-5.4-13.4h-0.5c0,0,1,12.4,5.6,15.2
	s27.6,5.7,44.9,5.5c5,0,6.7-1.8,6.6-4.5C1005.5,798.4,1003.7,799.4,999.9,799.4z"/>
<path class="st8" d="M262.6,762.9c1.8-1.5,3.2-3.5,3.8-5.8c0.5-2.3-0.5-5.1-2.7-5.9c-2.5-0.9-5.1,0.8-7.1,2.5s-4.3,3.7-6.9,3.3
	c2.7-2.5,4-6.2,3.2-9.8c-0.1-0.7-0.4-1.4-0.9-2c-1.4-1.5-3.8-0.8-5.5,0.3c-5.2,3.7-6.6,10.7-6.7,17.1c-0.5-2.3-0.1-4.7-0.1-7
	s-0.7-5-2.6-6.2c-1.2-0.7-2.6-1-4-1c-2.3-0.1-4.9,0.2-6.5,1.9c-2,2.1-1.5,5.7,0.3,8s4.4,3.8,6.8,5.4c1.9,1.2,3.6,2.7,4.8,4.6
	c0.1,0.3,0.3,0.5,0.4,0.8h14.6C256.8,767.5,259.9,765.4,262.6,762.9z"/>
<path class="st7" d="M146.2,778.7c0,0-14-47.7,2.6-82.8c7.1-14.7,9.2-31.3,6.1-47.3c-1.6-7.6-3.8-15-6.7-22.2"/>
<path class="st8" d="M158.6,604.2c0,5.8-10.6,22.8-10.6,22.8s-10.6-17-10.6-22.8s4.7-10.6,10.6-10.6
	C153.9,593.6,158.6,598.4,158.6,604.2L158.6,604.2L158.6,604.2z"/>
<path class="st8" d="M176.1,636.6c-3.2,4.9-21.3,13.4-21.3,13.4s0.3-20,3.5-24.9c3.3-4.8,9.9-6.1,14.7-2.8
	C177.8,625.5,179.1,631.8,176.1,636.6z"/>
<path class="st8" d="M175.4,692c-5.2,2.6-25.1,0.8-25.1,0.8s10.4-17.1,15.6-19.7c5.2-2.7,11.6-0.8,14.3,4.4s0.8,11.6-4.4,14.3
	C175.6,691.8,175.5,691.9,175.4,692z"/>
<path class="st8" d="M165.4,733.7c-4.7,3.5-24.6,5-24.6,5s7.3-18.6,12-22.1c4.5-3.7,11.2-3,14.9,1.5s3,11.2-1.5,14.9
	C165.9,733.2,165.6,733.4,165.4,733.7L165.4,733.7z"/>
<path class="st8" d="M132.6,651.1c4.2,4.1,23.7,8.3,23.7,8.3s-4.8-19.4-9-23.5c-4.1-4.2-10.8-4.3-15-0.2s-4.3,10.8-0.2,15
	C132.3,650.9,132.5,651,132.6,651.1L132.6,651.1z"/>
<path class="st8" d="M121.6,700.1c5.2,2.6,25.1,0.8,25.1,0.8s-10.4-17.1-15.6-19.7c-5.2-2.6-11.6-0.5-14.2,4.7
	C114.2,691.1,116.3,697.5,121.6,700.1L121.6,700.1z"/>
<path class="st8" d="M117.3,749.2c4.7,3.5,24.6,5,24.6,5s-7.3-18.6-12-22.1c-4.9-3.2-11.4-1.9-14.7,2.9
	C112.2,739.6,113.1,745.6,117.3,749.2L117.3,749.2z"/>
<path class="st8" d="M158.6,604.2c0,5.8-10.6,22.8-10.6,22.8s-10.6-17-10.6-22.8s4.7-10.6,10.6-10.6
	C153.9,593.6,158.6,598.4,158.6,604.2L158.6,604.2L158.6,604.2z"/>
<path class="st8" d="M176.1,636.6c-3.2,4.9-21.3,13.4-21.3,13.4s0.3-20,3.5-24.9c3.3-4.8,9.9-6.1,14.7-2.8
	C177.8,625.5,179.1,631.8,176.1,636.6z"/>
<path class="st8" d="M175.4,692c-5.2,2.6-25.1,0.8-25.1,0.8s10.4-17.1,15.6-19.7c5.2-2.7,11.6-0.8,14.3,4.4s0.8,11.6-4.4,14.3
	C175.6,691.8,175.5,691.9,175.4,692z"/>
<path class="st8" d="M165.4,733.7c-4.7,3.5-24.6,5-24.6,5s7.3-18.6,12-22.1c4.5-3.7,11.2-3,14.9,1.5s3,11.2-1.5,14.9
	C165.9,733.2,165.6,733.4,165.4,733.7L165.4,733.7z"/>
<path class="st8" d="M132.6,651.1c4.2,4.1,23.7,8.3,23.7,8.3s-4.8-19.4-9-23.5c-4.1-4.2-10.8-4.3-15-0.2s-4.3,10.8-0.2,15
	C132.3,650.9,132.5,651,132.6,651.1L132.6,651.1z"/>
<path class="st8" d="M121.6,700.1c5.2,2.6,25.1,0.8,25.1,0.8s-10.4-17.1-15.6-19.7c-5.2-2.6-11.6-0.5-14.2,4.7
	C114.2,691.1,116.3,697.5,121.6,700.1L121.6,700.1z"/>
<path class="st8" d="M117.3,749.2c4.7,3.5,24.6,5,24.6,5s-7.3-18.6-12-22.1c-4.9-3.2-11.4-1.9-14.7,2.9
	C112.2,739.6,113.1,745.6,117.3,749.2L117.3,749.2z"/>
<path class="st24" d="M113,775.7c0,0,17.1-3.4,21.7-7.9s25.1-12.5,27.4-6.8s30.8,24.9,11.4,28.3s-45.6,4.5-51.3,2.3
	S113,775.7,113,775.7z"/>
<path class="st19" d="M173.5,787.2c-19.4,3.4-45.6,4.5-51.3,2.3c-4.3-1.7-7.4-10-8.6-13.9l-0.6,0.1c0,0,3.4,13.6,9.1,15.8
	s31.9,1.1,51.3-2.3c5.6-1,7.2-3.3,6.6-6.2C179.6,785,177.6,786.4,173.5,787.2z"/>
</svg>
