<?xml version="1.0" encoding="utf-8"?>
<!-- Generator: Adobe Illustrator 22.0.1, SVG Export Plug-In . SVG Version: 6.00 Build 0)  -->
<svg version="1.1" id="Layer_1" xmlns="http://www.w3.org/2000/svg" xmlns:xlink="http://www.w3.org/1999/xlink" x="0px" y="0px"
	 viewBox="0 0 1976.1 842" style="enable-background:new 0 0 1976.1 842;" xml:space="preserve">
<style type="text/css">
	.st0{stroke:#000000;stroke-width:6;stroke-miterlimit:10;}
	.st1{clip-path:url(#SVGID_2_);}
	.st2{fill:#49C5E5;}
	.st3{fill:#062A5B;}
	.st4{clip-path:url(#SVGID_4_);}
	.st5{fill:#FFBD59;}
</style>
<title>Project Alphabet - Coloured Wide Logo</title>
<g id="Layer_2_1_">
	<g id="Main_Logos">
		<g id="Wide_Logo">
			<path class="st0" d="M572.3,790.4c0,0.7-0.5,1.2-1.5,1.5c-2.1,0.7-4.3,0.7-6.4,0c-1-0.3-1.5-0.9-1.5-1.8l0.5-138
				c0-6.5,1.4-10.5,4.3-12.1c2.9-1.6,6.6-2.3,11-2.2c3.7,0,9.4,0.3,17,0.8c7.8,0.6,15.5,2,23,4.3c7.6,2.3,14.5,6.2,20.3,11.6
				c5.8,5.3,8.8,12.9,8.9,22.6c0.2,8.7-2,16-6.4,22c-4.6,6.1-10.5,11.1-17.3,14.5c-7.6,3.9-15.8,6.6-24.2,7.9
				c-9.1,1.5-18.3,2.1-27.5,1.8L572.3,790.4z M639.1,676.4c0.1-4.4-1.2-8.7-3.7-12.3c-2.5-3.5-5.8-6.3-9.6-8.4
				c-4.2-2.3-8.6-4.1-13.3-5.2c-4.9-1.3-9.8-2.2-14.8-2.8c-4.6-0.6-9.3-0.9-14-0.9c-4.4,0-8.1,0.1-11,0.3l-0.5,67.3
				c8,0.5,15.9,0.3,23.9-0.8c7.4-0.9,14.6-2.9,21.4-6c6.1-2.7,11.4-6.9,15.6-12.1C637.1,690.4,639.1,684,639.1,676.4L639.1,676.4z"
				/>
			<path class="st0" d="M724.3,725.9c-1.6-2.3-3.5-4.3-5.7-6c-1.9-1.4-3.9-2.5-6-3.5c-3.4-1.2-7.1-1.8-10.7-1.9
				c-3.6-0.1-7.1,0.5-10.5,1.7c-3.5,1.2-6.9,2.9-9.8,5.2c-3,2.3-5.6,5-7.7,8.2c-2.2,3.2-3.9,6.7-5.1,10.3c-1.3,3.6-1.9,7.4-1.9,11.2
				v38c0,1.1-0.6,2.2-1.7,2.7c-1.1,0.6-2.3,0.9-3.6,1c-1.2,0.1-2.5-0.2-3.6-0.8c-1-0.5-1.7-1.5-1.7-2.7l0.3-82.7
				c0-1,0.6-1.9,1.5-2.3c2-1,4.4-1,6.4,0c0.9,0.4,1.5,1.3,1.5,2.3l0.3,18.1c2.2-3.5,4.9-6.7,8-9.4c2.8-2.4,5.8-4.5,9.1-6.1
				c2.8-1.4,5.8-2.6,8.9-3.3c2.6-0.6,5.2-1,7.9-1c6.3-0.1,12.5,1.3,18.2,4c5.5,2.6,10.2,6.7,13.4,11.9c0.8,0.9,1,2.2,0.6,3.3
				c-0.4,1-1.1,1.8-2,2.4c-1,0.6-2.1,0.9-3.2,0.9C726.2,727.4,725.1,726.8,724.3,725.9z"/>
			<path class="st0" d="M749.8,748.1c0-5.8,1.1-11.5,3.3-16.8c2.1-5.2,5.2-9.9,9.1-13.9c3.9-4,8.5-7.3,13.7-9.6
				c5.3-2.4,11-3.6,16.8-3.6c5.8,0,11.5,1.2,16.7,3.6c5.1,2.3,9.7,5.5,13.5,9.6c3.8,4,6.9,8.7,9.1,13.9c2.2,5.3,3.3,11.1,3.3,16.8
				c0,5.8-1.1,11.6-3.3,16.9c-2.1,5.2-5.2,9.9-9.1,14c-3.9,4-8.4,7.3-13.5,9.6c-5.2,2.4-10.9,3.6-16.7,3.6c-5.8,0-11.5-1.2-16.8-3.6
				c-5.1-2.3-9.8-5.5-13.7-9.6c-3.9-4.1-6.9-8.8-9.1-14C750.9,759.6,749.8,753.9,749.8,748.1z M758.8,748.3c0,4.6,0.9,9.1,2.7,13.3
				c1.7,4.1,4.2,7.9,7.3,11.1c3,3.1,6.6,5.7,10.6,7.5c4,1.9,8.4,2.8,12.9,2.8c4.5,0,8.9-0.9,13-2.8c8.2-3.7,14.6-10.4,18-18.6
				c1.8-4.2,2.7-8.7,2.7-13.3c0-4.5-0.9-9-2.7-13.1c-1.7-4.1-4.2-7.7-7.3-10.8c-3.1-3.1-6.7-5.6-10.7-7.4c-4.1-1.9-8.5-2.8-13-2.8
				c-4.5,0-8.9,0.9-12.9,2.8c-3.9,1.8-7.5,4.3-10.6,7.4c-3.1,3.1-5.6,6.8-7.3,10.8C759.7,739.3,758.8,743.8,758.8,748.3z"/>
			<path class="st0" d="M858.8,708.3c0-1.1,0.5-2.2,1.5-2.7c2.1-1.2,4.7-1.2,6.9,0c1,0.6,1.6,1.7,1.5,2.9v73.7
				c0,3.9-0.1,8.1-0.3,12.6c-0.2,4.5-0.6,9-1.5,13.4c-0.9,4.4-2.2,8.7-4,12.9c-1.7,4.1-4.3,7.8-7.5,10.8c-2.2,2.2-4.9,3.8-7.9,4.7
				c-3.2,1-6.6,1.5-10,1.7c-3.1,0.2-6.2-0.4-9.1-1.5c-2.9-1.2-5.6-2.9-7.9-5c-2.3-2.2-4.3-4.7-5.9-7.5c-1.6-2.8-2.7-6-3.2-9.2
				c-0.2-1.2,0.1-2.4,0.8-3.4c0.6-0.9,1.5-1.5,2.5-1.7c1.1-0.2,2.1,0,3.1,0.5c1.1,0.6,1.8,1.6,2,2.8c1.3,5.4,3.6,9.5,6.8,12.1
				c3.2,2.7,7.2,4.1,11.3,4c4.8,0,8.4-1.3,11-3.8c2.5-2.5,4.4-5.6,5.6-8.9c1.4-3.7,2.4-7.5,3.1-11.3c0.7-4.1,1.1-8.2,1.2-12.3
				c0.2-4.2,0.3-8.1,0.3-11.9v-5.7c0-2.1,0-5.7-0.1-10.7s-0.2-12-0.3-20.8S858.8,723.2,858.8,708.3z M857,681.7
				c0-1.8,0.7-3.5,1.9-4.8c1.2-1.3,2.9-2,4.7-2c1.9-0.1,3.7,0.7,5.1,2c1.3,1.3,2,3,2,4.8c0,1.8-0.7,3.5-2,4.7
				c-1.4,1.3-3.2,2-5.1,1.9c-3.6,0.1-6.6-2.8-6.6-6.4C857,681.9,857,681.8,857,681.7L857,681.7z"/>
			<path class="st0" d="M965.2,767.5c1-1.5,2.1-2.3,3.3-2.3c1.1,0,2.3,0.3,3.2,1c0.9,0.7,1.6,1.7,1.9,2.8c0.4,1.1,0.2,2.4-0.5,3.3
				c-6,7.8-12.4,13-19.3,15.6c-6.4,2.5-13.2,3.8-20,4.1c-9.3,0.3-17.4-1.6-24.1-5.7c-6.8-4.3-12.4-10.3-16-17.5
				c-3.3-6.7-4.9-14-4.8-21.4c-0.1-5.7,1.1-11.4,3.5-16.6c2.2-5,5.4-9.6,9.3-13.4c8.2-8,19.2-12.6,30.6-12.9
				c5.4-0.2,10.7,0.6,15.8,2.4c4.4,1.6,8.5,4.1,12.1,7.1c3.3,2.9,6.1,6.3,8.4,10c2.1,3.3,3.5,7,4.3,10.8c0.8,4.4,1,7.9,0.4,10.3
				c-0.6,2.5-2.8,3.7-6.5,3.7l-69.4-0.3c0.4,5.6,1.8,11,4.1,16.1c3.4,7,7.9,12,13.4,14.9c5.6,3,11.9,4.4,18.2,4.2
				c2.7,0,5.5-0.3,8.2-0.9c3-0.6,5.9-1.5,8.7-2.7c3-1.3,5.8-2.9,8.3-5C960.9,773,963.2,770.4,965.2,767.5z M931.2,713.6
				c-3.3,0.2-6.5,0.8-9.7,1.8c-3.5,1.1-6.7,2.6-9.7,4.7c-3.2,2.2-6,4.9-8.3,8c-2.6,3.4-4.4,7.3-5.5,11.5l67.1,0.5
				c-0.4-4.4-1.8-8.6-4-12.4c-2-3.3-4.6-6.2-7.8-8.4c-3.1-2.2-6.6-3.7-10.3-4.6C939.2,713.8,935.2,713.4,931.2,713.6z"/>
			<path class="st0" d="M1063.4,763.9c0.6-1.2,1.7-2,3.1-2.2c1.2-0.1,2.3,0.3,3.2,1c1,0.8,1.6,1.9,1.9,3.2c0.3,1.4,0.1,2.9-0.8,4.1
				c-3.6,6.7-9,12.3-15.4,16.3c-6.5,4.1-14.1,6.2-21.8,6.1c-5.8,0-11.5-1.2-16.7-3.6c-10.4-4.8-18.6-13.4-22.8-24
				c-2.2-5.4-3.3-11.2-3.3-17.1c0-5.8,1.1-11.6,3.3-17c2.1-5.3,5.3-10.1,9.2-14.2c3.9-4.1,8.5-7.4,13.7-9.7c5.2-2.4,11-3.5,16.7-3.3
				c4.5,0.1,8.9,0.8,13.1,2.2c3.7,1.2,7.3,2.8,10.6,5c2.9,1.9,5.6,4.3,7.8,7c2,2.4,3.6,5.1,4.7,8c0.4,0.9,0.2,2-0.4,2.8
				c-0.6,0.9-1.5,1.5-2.4,2c-0.9,0.5-2,0.8-3.1,0.8c-0.8,0.1-1.6-0.3-2.1-1c-3.7-6.5-8-10.9-12.9-13.1c-4.9-2.3-10.3-3.5-15.7-3.5
				c-4.5,0-8.9,0.9-13,2.8c-4,1.8-7.6,4.3-10.6,7.4c-3,3.1-5.5,6.8-7.1,10.8c-1.8,4.2-2.7,8.6-2.7,13.1c0,4.6,0.9,9.1,2.7,13.3
				c1.7,4.1,4.1,7.9,7.1,11.1c3,3.2,6.6,5.7,10.6,7.5c4.1,1.9,8.5,2.8,13,2.8c6.6,0,12.1-1.3,16.5-3.8
				C1054.1,776.3,1058.6,771.3,1063.4,763.9z"/>
			<path class="st0" d="M1105.8,697.8v-56.4c0-1.1,0.6-2.2,1.5-2.8c1-0.7,2.2-1,3.4-1c1.2,0,2.4,0.3,3.4,0.9c1,0.5,1.6,1.6,1.5,2.7
				v56.6h28.8c1.4-0.1,2.7,0.4,3.7,1.4c0.9,0.8,1.4,2,1.5,3.2c0.1,1.2-0.3,2.3-1,3.2c-0.9,1-2.1,1.5-3.4,1.4H1116l0.3,83.4
				c0.1,1.2-0.6,2.4-1.7,2.9c-1.1,0.6-2.3,0.9-3.6,0.9c-1.2,0-2.4-0.3-3.4-0.9c-0.9-0.5-1.5-1.4-1.5-2.4V707h-29.8
				c-1,0-1.9-0.5-2.4-1.4c-0.6-1-0.9-2.1-0.9-3.2c0-1.1,0.2-2.2,0.8-3.2c0.4-0.9,1.3-1.4,2.3-1.4L1105.8,697.8z"/>
			<path class="st0" d="M1275.2,641.7c0.4-1.3,1.3-2.3,2.4-3.1c2.2-1.4,5.1-1.4,7.3,0.1c1.2,0.8,2.1,1.9,2.6,3.2l49.5,145.4
				c0.3,0.9,0.1,1.8-0.6,2.4c-0.8,0.8-1.7,1.3-2.8,1.7c-1.1,0.3-2.2,0.4-3.3,0.3c-1-0.1-1.9-0.8-2.2-1.8l-18.4-55.9h-56.4
				l-19.1,56.1c-0.3,1-1.1,1.7-2.2,1.8c-1.1,0.2-2.2,0.1-3.2-0.3c-1-0.3-1.9-0.9-2.6-1.7c-0.7-0.6-0.9-1.6-0.5-2.4L1275.2,641.7z
				 M1256.5,724.3h49.5l-24.8-70.2L1256.5,724.3z"/>
			<path class="st0" d="M1360.4,641.4c0-1.2,0.6-2.2,1.7-2.8c2.2-1.4,5-1.4,7.2,0c1,0.6,1.7,1.6,1.7,2.8l0.5,147.5
				c0.1,1.2-0.5,2.3-1.5,2.8c-1,0.5-2.1,0.8-3.2,0.8c-1.1,0-2.2-0.3-3.2-0.9c-0.9-0.4-1.5-1.4-1.5-2.4L1360.4,641.4z"/>
			<path class="st0" d="M1402.2,724.6c2-3.7,4.7-7,7.8-9.8c2.8-2.5,5.9-4.6,9.2-6.4c5.4-2.8,11.4-4.3,17.5-4.5
				c5.8,0,11.5,1.2,16.7,3.6c16,7.4,26.2,23.5,26.2,41.1c0,5.8-1.1,11.5-3.3,16.8c-2.1,5.2-5.2,9.8-9.2,13.8
				c-3.9,3.9-8.6,7.1-13.7,9.3c-5.3,2.3-11,3.5-16.7,3.4c-2.7-0.1-5.4-0.4-8-1c-3.3-0.7-6.5-1.9-9.6-3.4c-3.4-1.7-6.6-3.9-9.4-6.4
				c-3.1-2.7-5.6-6.1-7.4-9.8l0.5,62.5c0,1.9-0.5,3.2-1.5,4c-0.9,0.7-2.1,1.1-3.3,1.2c-1.2,0-2.4-0.5-3.3-1.3
				c-1.1-1-1.6-2.4-1.5-3.8l0.2-125.9c-0.1-1.6,0.4-3.2,1.4-4.5c0.8-0.9,2-1.4,3.2-1.4c1.2,0,2.3,0.4,3.2,1.1c1,0.9,1.5,2.1,1.4,3.5
				L1402.2,724.6z M1470.3,748.1c0-4.5-0.9-9-2.7-13.1c-1.7-4.1-4.1-7.8-7.2-11c-3-3.2-6.6-5.7-10.6-7.5c-8.3-3.7-17.7-3.7-26,0
				c-4,1.8-7.6,4.4-10.6,7.5c-3,3.2-5.4,6.9-7.1,11c-3.6,8.4-3.6,17.9,0,26.3c1.7,4.1,4.1,7.8,7.1,11c3,3.2,6.6,5.7,10.6,7.5
				c8.3,3.7,17.7,3.7,26,0c4-1.8,7.6-4.4,10.6-7.5c3-3.2,5.4-6.9,7.2-11C1469.4,757,1470.4,752.6,1470.3,748.1z"/>
			<path class="st0" d="M1566,788.6c0.4-9.7,0.2-19.4-0.5-29c-0.5-6.7-1.5-13.4-3.1-20c-1-4.4-2.4-8.7-4.3-12.8
				c-1.4-2.9-3.2-5.6-5.4-8c-1.6-1.8-3.6-3.2-5.9-4.1c-1.8-0.7-3.7-1.1-5.6-1.2c-4.6,0-9.2,1.4-13,4c-4.1,2.6-7.7,5.9-10.7,9.7
				c-3,3.7-5.4,7.8-7.3,12.2c-1.6,3.7-2.5,7.6-2.7,11.6v36.5c0.1,1.4-0.5,2.9-1.5,3.8c-1.8,1.7-4.6,1.7-6.4,0
				c-1.1-1-1.6-2.4-1.5-3.8l-0.8-145.9c-0.1-1.3,0.5-2.6,1.5-3.5c1.9-1.5,4.5-1.5,6.4,0c1,0.7,1.6,1.9,1.5,3.2l0.3,86.5
				c2-4.2,4.6-8.1,7.8-11.5c2.7-2.8,5.7-5.3,9.1-7.4c2.8-1.8,5.9-3.1,9.1-4c2.6-0.7,5.3-1.1,8-1.2c3.9-0.1,7.8,0.8,11.3,2.5
				c3.3,1.7,6.2,4,8.6,6.8c2.5,2.9,4.5,6.2,6.1,9.7c1.7,3.7,3.1,7.6,4.1,11.6c2.1,8.3,3.4,16.8,3.7,25.4c0.4,9.3,0.7,18.8,0.9,28.4
				c0.1,1.2-0.5,2.3-1.5,2.9c-1,0.6-2.2,0.9-3.3,0.9c-1.2,0-2.3-0.3-3.3-1C1566.6,790.7,1566,789.7,1566,788.6z"/>
			<path class="st0" d="M1670.1,774.6c-2.6,3.3-5.6,6.3-8.9,8.9c-2.8,2.2-5.9,4.1-9.2,5.5c-2.9,1.2-5.9,2.1-8.9,2.7
				c-2.6,0.5-5.3,0.7-7.9,0.8c-5.8,0-11.5-1.2-16.7-3.6c-5.1-2.3-9.7-5.6-13.5-9.7c-3.9-4.1-6.9-8.9-9.1-14.2
				c-2.2-5.4-3.3-11.2-3.3-17c0-5.8,1.1-11.5,3.3-16.8c2.1-5.2,5.2-9.9,9.1-13.9c3.8-4,8.4-7.2,13.5-9.4c5.3-2.3,11-3.4,16.7-3.2
				c6.7,0.3,13.3,1.9,19.3,4.8c6.6,3.1,12.1,8.2,15.7,14.5v-15.3c-0.1-1.4,0.4-2.7,1.4-3.7c0.8-0.7,1.9-1.1,3.1-1
				c1.1,0.1,2.2,0.5,3.1,1.3c0.9,0.7,1.4,1.8,1.4,2.9l-0.3,80.9c0.1,1.1-0.5,2-1.4,2.5c-0.9,0.5-1.9,0.7-2.9,0.6
				c-1-0.1-2-0.4-2.9-0.9c-0.9-0.4-1.4-1.3-1.4-2.3V774.6z M1601.5,748.3c-0.2,4.5,0.6,9,2.2,13.3c1.5,4.2,3.9,8,6.9,11.2
				c6.3,6.8,15.1,10.6,24.4,10.5c4.5,0,9-0.9,13.1-2.7c4-1.7,7.7-4.2,10.8-7.3c3.1-3.2,5.6-6.9,7.4-11c3.7-8.7,3.7-18.4,0.3-27.2
				c-1.7-4.1-4-7.8-7-11.1c-3-3.2-6.7-5.8-10.7-7.5c-4.4-1.8-9.1-2.7-13.9-2.7c-8.8,0-17.2,3.5-23.3,9.7
				C1605.2,729.8,1601.8,738.1,1601.5,748.3z"/>
			<path class="st0" d="M1708.6,789.7c0,1-0.5,1.9-1.4,2.4c-0.9,0.6-2,0.9-3.1,1c-1.1,0.1-2.1-0.1-3.1-0.6c-1-0.6-1.5-1.7-1.4-2.8
				v-37.5c0-12.1,0-24.1-0.1-36c-0.1-11.9-0.1-23.9-0.1-35.8v-37.6c-0.1-1.4,0.4-2.8,1.4-3.8c0.9-0.8,2-1.3,3.2-1.3
				c1.2,0,2.4,0.5,3.2,1.4c1,1.1,1.5,2.5,1.4,4v0.3l-0.3,80.4c2.4-3.6,5.4-6.9,8.7-9.7c2.8-2.4,5.9-4.4,9.2-6.1
				c2.8-1.4,5.8-2.5,8.8-3.3c2.5-0.6,5-1,7.5-1c6.1-0.1,12.2,1.1,17.9,3.5c5.1,2.2,9.7,5.4,13.4,9.6c3.7,4.2,6.6,9,8.6,14.2
				c2.1,5.4,3.1,11.2,3.1,17c0,5.8-1.1,11.6-3.3,17c-2.1,5.2-5.2,9.9-9.1,14c-3.9,4-8.4,7.3-13.5,9.6c-5.2,2.4-10.9,3.6-16.7,3.6
				c-2.9,0-5.8-0.4-8.6-1.2c-3.3-0.8-6.5-2.1-9.4-3.7c-3.2-1.8-6.2-3.9-8.9-6.4c-2.8-2.6-5.3-5.6-7.3-8.9L1708.6,789.7z
				 M1776.5,748.1c0-4.6-0.7-9.1-2.2-13.4c-1.4-4.2-3.6-8.1-6.5-11.5c-2.9-3.4-6.6-6-10.7-7.8c-4.6-1.9-9.6-2.8-14.5-2.5
				c-4.5,0.1-8.9,1.2-12.9,3.2c-3.9,1.9-7.5,4.5-10.5,7.7c-3,3.2-5.4,6.9-7.1,11c-1.8,4.1-2.7,8.6-2.7,13.1c0,4.6,0.9,9.1,2.7,13.4
				c1.7,4.2,4.2,8.1,7.3,11.5c3,3.3,6.6,6,10.6,7.9c4,2,8.4,2.9,12.9,2.7c4.7-0.1,9.3-1.2,13.5-3.2
				C1768.7,774.2,1776.5,761.8,1776.5,748.1L1776.5,748.1z"/>
			<path class="st0" d="M1878.6,767.5c1-1.5,2.1-2.3,3.3-2.3c1.1,0,2.3,0.3,3.2,1c1,0.7,1.6,1.7,1.9,2.8c0.4,1.1,0.2,2.4-0.5,3.3
				c-5.9,7.8-12.4,13-19.3,15.6c-6.4,2.5-13.2,3.8-20,4.1c-9.3,0.3-17.4-1.6-24.1-5.7c-6.8-4.3-12.4-10.3-16-17.5
				c-3.3-6.7-4.9-14-4.8-21.4c-0.1-5.7,1.1-11.4,3.4-16.6c2.2-5,5.4-9.6,9.3-13.4c4-3.9,8.7-7,13.8-9.2c5.3-2.3,11-3.6,16.8-3.7
				c5.3-0.2,10.7,0.6,15.7,2.4c4.4,1.6,8.5,4.1,12.1,7.1c3.3,2.9,6.1,6.3,8.4,10c2.1,3.3,3.5,7,4.3,10.8c0.8,4.4,1,7.9,0.4,10.3
				c-0.6,2.5-2.8,3.7-6.5,3.7l-69.4-0.3c0.4,5.6,1.8,11,4.1,16.1c3.4,7,7.9,12,13.4,14.9c5.6,3,11.9,4.4,18.3,4.2
				c2.7,0,5.5-0.3,8.2-0.9c3-0.6,5.9-1.5,8.7-2.7c3-1.3,5.8-2.9,8.3-5C1874.3,773,1876.6,770.4,1878.6,767.5z M1844.6,713.6
				c-3.3,0.2-6.5,0.8-9.7,1.8c-3.5,1-6.7,2.6-9.7,4.7c-3.2,2.2-6,4.9-8.3,8c-2.6,3.4-4.4,7.3-5.5,11.5l67.1,0.5
				c-0.4-4.4-1.8-8.6-4-12.4c-2-3.3-4.6-6.2-7.8-8.4c-3.1-2.2-6.6-3.7-10.3-4.6C1852.6,713.8,1848.6,713.4,1844.6,713.6z"/>
			<path class="st0" d="M1929.1,697.8v-56.4c0-1.1,0.6-2.2,1.5-2.8c1-0.7,2.2-1,3.4-1c1.2,0,2.4,0.3,3.4,0.9c1,0.5,1.6,1.6,1.5,2.7
				v56.6h28.8c1.4-0.1,2.7,0.4,3.7,1.4c0.9,0.8,1.4,2,1.5,3.2c0.1,1.2-0.3,2.3-1,3.2c-0.9,1-2.1,1.5-3.4,1.4h-29.3l0.3,83.4
				c0.1,1.2-0.6,2.4-1.7,2.9c-1.1,0.6-2.3,0.9-3.6,0.9c-1.2,0-2.4-0.3-3.4-0.9c-0.9-0.5-1.5-1.4-1.5-2.4V707h-29.8
				c-1,0-1.9-0.5-2.4-1.4c-0.6-1-0.9-2.1-0.9-3.2c0-1.1,0.2-2.2,0.8-3.2c0.4-0.9,1.3-1.4,2.3-1.4L1929.1,697.8z"/>
			<g id="Logo">
				<g>
					<defs>
						<rect id="SVGID_1_" x="314.6" width="694.5" height="595.3"/>
					</defs>
					<clipPath id="SVGID_2_">
						<use xlink:href="#SVGID_1_"  style="overflow:visible;"/>
					</clipPath>
					<g class="st1">
						<path class="st2" d="M661.8,0.1c191.8,0,347.3,121.2,347.3,270.7c0,85.1-50.4,161-129.2,210.6c13.7,37.1,32,72.4,54.5,104.9
							c-60.8,27-130-14-178.9-54.9c-30.8,6.7-62.1,10-93.6,10c-191.7,0-347.2-121.2-347.2-270.6S470.1,0.1,661.8,0.1z"/>
					</g>
				</g>
				<g id="Handprint">
					<path class="st3" d="M575.4,315.7c1.3-4.6,2.2-9.4,3.7-14c0.9-2.3,2.2-4.5,3.8-6.3c3.5-4,7.3-7.9,11-11.7
						c6.2-6.2,13.9-8.9,22.5-9.3c7.6-0.4,11.5-6.1,16.2-10.9c4-4.2,8.3-8.2,12.8-11.9c1.5-1.2,4.4-0.6,6.7-0.8
						c1.3,0.1,2.5,0,3.8-0.1c8.7-1.8,17.6-1.8,26.3-0.2c0.8,0,1.5-0.1,2.3-0.4c-0.3-0.9-0.3-2-0.8-2.6c-1.3-1.4-2.8-2.7-4.3-3.9
						c1.4-0.8,2.9-1.4,4.5-1.9c10.2-2.4,21-1.3,30.5,3.1c8.5,3.9,14.1,13.8,12.8,25.3c-0.7,6.8-3.7,13.1-8.5,17.9l-13.3,12.1
						c-0.8,1.2-1.7,2.3-2.7,3.3c-6.3,6.1-12.5,12.4-19.4,17.8c-3.7,2.8-8.7,3.8-13,5.8c-5.3,2.6-10.6,5.4-15.8,8.2
						c-0.9,0.5-1.5,1.4-1.7,2.3l9.2-2.7c0.1,0.4,0.3,0.8,0.4,1.2c-7.7,7.7-17.8,9.8-28.1,11.6c0,0.3-0.1,0.6-0.1,1
						c1.3,0.3,2.8,1,3.9,0.7c6.1-1.7,12.4-3.1,18.1-5.8c4.7-2.2,8.5-6,12.8-9c1.8-1.3,3.6-2.4,5.4-3.5c0.3,0.3,0.5,0.5,0.8,0.8
						c-1.8,3.9-3.9,7.6-5.5,11.6c-2.9,7.4-5.8,14.8-8.3,22.4c-0.9,2.6-0.5,5.8-0.7,8.7l1.3,0.3c0.3-0.9,0.6-1.8,0.8-2.8
						c3.1-11.9,6.9-23.4,14.2-33c2-2.6,5.2-4.3,7.7-6.5c1.2-1,2.7-1.9,3.3-3.2c1.1-2.7,3.5-4.7,6.5-5.2c8-1.5,15.9-3.4,24-4.2
						c4.6-0.5,9.4,0.9,14.1,1.6c1.4,0.3,2.7,0.8,3.9,1.5l0.6-2.1c-1.2-1-2.2-2.3-3.5-2.8c-7.7-2.6-15.5-3.3-23.2-0.9
						c-3.3,1-6.7,2-10.2,2.8c-1.7,0.2-3.3,0.4-5,0.4c0.4-0.9,0.9-1.8,1.5-2.7c2.7-3.3,5.4-6.6,8.2-9.9c1.2-1.4,2.5-1.9,4.1-0.4
						c2.6,2.4,4.8,1.6,7.6,0.1c8.2-4.6,16.5-9.3,25.1-13c5.9-2.5,12.4-3.5,18.8,0.8c3.5,2.3,5.6,6.2,5.6,10.4
						c0.1,2.7,0.4,5.3,0.9,7.9c1,5.7,3.9,9.9,9.4,12c2.3,1,4.5,2.3,6.5,3.9c6.9,5.2,9.2,12.7,9.3,20.7c0.1,5.8-1.2,11.6-2,17.4
						c-0.4,2.9-1,5.9-1.2,8.8c-0.6,6.5-0.8,13.1-1.5,19.6c-1.4,11.5-8,19.4-17.2,24.9c-6.5,3.9-13.5,6.2-21.3,5.9
						c-8.7-0.3-15.4-4.9-21.7-10.8c-8.5-8-12.8-17.9-13.4-29.5c-0.1-1.5-1.6-4.4-1.9-4.4c-2.6,0.5-1.7,2.9-1.4,4.6
						c1.8,10.5,4.3,20.9,10.5,29.9c1.9,2.7,4.5,4.9,6.9,7.2c1.2,1.2,2.6,2.2,4.6,3.8l-19,3.5c0.7-2.9,1.3-5.4,1.9-8l-1.2-0.7
						c-1.2,0.7-2.4,1.5-3.5,2.4c-2.3,2.1-4.5,4.3-6.7,6.5c-3.3,3-5.7,6.8-7.1,11c-0.5,1.6-2.4,3-3.9,3.8c-8.8,4.9-17.8,8.9-28.3,8.9
						c-12.3,0.2-24-5.1-32-14.5c-1.5-1.7-3.2-3.1-4.8-4.6l-2.6-3.1c-2.5-4.5-4.8-9.1-7.6-13.4c-8.8-13.9-17.5-27.8-26.8-41.3
						c-8.6-12.6-13.3-26.6-16.9-41.1C572.4,330.1,573.5,322.8,575.4,315.7z"/>
					<path class="st3" d="M591.3,258.3c-3.4-2.1-6.4-4.8-8.9-8c-3.3-4-6.1-8.3-8.5-12.9c-1.2-2.4-1-5.5-1.2-8.3
						c-0.1-1.7,0-3.4,0.1-5.1c-4.7,3.1-7.3,0.4-9.6-2.6c-7.8-10.3-15.6-20.7-23.1-31.1c-2.9-4.1-4-8.5-2.2-13.6
						c1.2-3.3,0.7-7.3,1-11.8c-2.7,1.6-4.4,3-6.3,3.6c-1.4,0.3-2.8-0.1-3.8-1c-7.8-9.3-14.5-19.5-20-30.4
						c-3.1-6.2-3.8-12.4-0.7-18.5l5.8-5c2.3-0.3,4.6-0.8,6.9-0.9c5.8-0.3,10,3.2,13.9,7.3c8.2,8.6,14.4,18.8,18.3,30
						c0.3,0.9,0.6,1.7,0.8,2.6c1.4,5.8,1.3,5.5-3.9,7.6c-2.6,1-4.7,3.2-6.9,5c-0.5,0.5-0.5,1.6-0.8,2.5l0.7,0.6l8.6-4.8l0.5,0.8
						c-1.7,1.1-3.3,2.4-4.8,3.7c-2.3,2.1-4.4,4.3-6.4,6.6c-0.6,0.7-0.4,2.2-0.5,3.3c1-0.4,2.2-0.4,2.9-1.1c3.1-3.1,5.9-6.5,9.1-9.5
						c4.5-4.2,9.5-3.7,14,1c6.3,6.5,9.9,14.6,13.5,22.8c1.5,3.3,2.7,6.7,3.8,10.1c0.3,1.5,0,3-0.8,4.3c-1.2,1.4-2.6,2.5-4.3,3.4
						c-3.3,2.1-4.2,5.4-4.1,9.8c1-0.6,1.9-1.2,2.8-1.9c2.8-2.6,5.5-5.4,8.3-8c1-0.8,2.4-1.1,4-1.8c-3.3,3.5-6.4,6.3-8.8,9.5
						s-5.5,6.4-4.2,12.4c2.1-2.3,3.6-4,5.2-5.6c2.3-2.5,4.8-4.8,7.4-6.9c1-0.7,3.7-0.3,4.6,0.6c8.4,9,13.9,19.4,13.1,32
						C606.5,257,598,262.1,591.3,258.3z"/>
					<path class="st3" d="M791.9,306.3c4.6-4.7,9.3-9.1,15-12.2c2.1-1.1,2.6-2.5,2.3-4.8c-0.3-2.6-0.2-5.1-0.3-8.7
						c1.7,1.4,2.5,2.1,3.5,2.9c2.2-2.4,5.7-6.1,5.5-9.2c-0.1-2.4-0.6-5.3,3.5-4.3c0.4,0.1-1.8,0-1.7-0.6c0.6-1.8,0.9-3.6,1.1-5.5
						c0.6-11.9,6.5-20.2,16.3-25.5c5.2-3,11.1-4.7,17.1-4.9c5.2-0.3,10.3,1.5,14.1,5c0.5,0.4,1.1,0.7,1.7,0.9l2.6,3.1
						c6,12.4,1.3,22.4-5.2,32.3c-6.8,10.5-17.6,16.1-26.5,24c-1.9,1.6-3.6,3.3-5.2,5.1c-2.3,2.9-2.5,2.9-4.6-0.5
						c-1.9-3.1-4.1-6.1-6.1-9.2l-1,0.2c-0.2,1-0.2,2.1,0,3.2c1.6,5,0.7,9-2.6,12.8c-3.6,4-6.9,8.2-10,12.6c-2,2.9-3.7,6.1-5,9.4
						c-2.3,5.4-6.3,6.2-10.9,2.2c-3.8-3.4-6.3-7.9-7.3-12.9C786.8,316.2,787.2,311,791.9,306.3z"/>
					<path class="st3" d="M652.1,189.9c0,2.4-1.3,3.7-3.8,3.9c-1.7,0.3-3.3,0.8-4.8,1.4l0.4,1.6c1.5,0,3.1,0.1,4.6,0.1
						c4.7-0.1,6.4,0.8,7.9,4.9c3.4,9.4,5.9,18.9,2.5,28.7c-2.6,7.4-6.9,9.1-13.6,4.7c-8.2-5.4-13.9-12.9-16.1-22.6
						c-1.1-4.8,0.1-9.3,4.3-12.2c0.5-0.3,0.9-0.6,1.2-1.1c0.3-0.7,0.5-1.5,0.7-2.2c-0.7,0-1.3,0-2,0.1c-0.5,0.1-1,0.3-1.5,0.5
						c-0.1-3.1-1-3.7-3.4-2.2c-1.6,1-3.2,2.1-4.8,3.2c-1.8,1.3-3.4,1-4.2-1.2c-4.4-11.3-9.2-22.5-12.7-34.1
						c-1.5-5.1-2.6-10.4-4.8-15.4c-4.1-9.3-7.9-18.6-11.5-28.1c-3-8-5.2-16.3-5.2-24.9c0-9.1,8.7-21,20.1-17.9
						c4.3,1.1,7.8,4.2,9.5,8.3c3.6,8.3,6.8,16.9,10.2,25.3c3.2,7.8,6.4,15.6,9.8,23.2c1.3,2.9,0.3,4.2-2,5.1c-3,1.3-6.6,1.8-9,3.8
						c-3.7,3.1-6.6,7.1-9.7,10.8c-0.4,0.8-0.4,1.7,0,2.4c0.6,0.6,1.4,1,2.2,0.9c1.1-0.1,0.5-7.3,1.6-7.7c5.4-1.9,10.8-4,16.2-5.8
						c1.4-0.5,3.1-0.9,4.1,1.3c4.2,9.5,11.7,25.1,13,35.6C651.8,183.7,652,186.8,652.1,189.9z"/>
					<path class="st3" d="M699.4,101.1c-2.9,4.7-0.9,9.4,0.6,14.1c2.2,6.8,4.4,13.7,6.6,20.5c1.4,4.3-0.3,6.7-4.7,6.9
						c-2.2,0.1-4.3,0.5-6.5,0.7c0,0.4,0,0.9,0,1.3l10.1,3.3c-0.1,0.4-0.2,0.8-0.3,1.2l-7.2-1.1c-0.1,0.5-0.3,0.9-0.4,1.4
						c2,1.1,4.1,2,6,3.2c1.3,0.8,2.9,2,3.3,3.2c2.7,9.3,4.8,18.7,3.2,28.4c-0.5,3-1.6,4.2-4.8,3.9c-3.6-0.2-7.3,0-10.9,0.7
						c-1.6,0.3-2.9,1.6-4.3,2.4c0.4,0.9,0.5,1.3,0.6,1.3c5,0.6,9,4,13.6,5.8c3.8,1.4,6.3,4.3,5.9,8.3c-0.5,6.4-1.5,12.7-3,18.9
						c-2,7.4-8,10.6-14.2,8.5c-3.6-1.2-6.3-4.3-6.8-8c-1.5-7.8-2.6-15.7-3.5-23.5c-0.3-2.4,0.5-4.9,0.7-7.4l-0.8-0.3
						c1.3-1.1,2.6-2.2,3.8-3.4c0.4-0.7,0.7-1.5,0.9-2.3c-0.7-0.3-1.6-1-2.2-0.8c-2.6,0.8-3.4-0.8-3.7-2.9c-1.4-11.1-2.7-22.2-4-33.3
						c-0.3-2.5,1.3-3.1,3.2-3.6c3-0.7,6.4-0.8,9.2-4.1l-6.3-2.2l7.5-4c-3.3-1.8-3.3-1.8-15,3c-0.6-2.5-1.2-4.9-1.8-7.4
						c-0.7-2.9-1.3-5.9-2.2-8.7c-3.9-12.6-5.9-25.8-6.1-39c-0.2-7.3,3.1-13.7,9.5-17.4c5.5-3.2,13.3-0.9,16.9,4.9
						c5,7.9,6.7,16.8,7.6,25.9C699.8,100,699.7,100.6,699.4,101.1z"/>
					<path class="st3" d="M465,197.6c5-3.5,12-2.6,16.6,2.2c5.3,5.6,10.4,11.5,15.8,17c2.4,2.6,5.2,4.8,8.2,6.6
						c8,4.6,15.9,9.3,22.4,16c1.8,1.9,3.3,4.2,5,6.2c1,1.4,2.4,2.6,3.9,3.5c8.1,3.6,14.8,9.2,20.8,15.8c4.4,4.9,9.1,9.7,11.3,16.2
						c1.5,4.3,0.7,9.3-2.1,11.6c-3.5,3-6.9,3.5-11.2,0.1c-8.2-6.4-16.1-13.3-24.1-20c-2.5-2.1-1.8-4.5-0.4-6.8
						c0.8-1.4,1.5-2.8,2-4.4c0-0.6-0.2-1.2-0.7-1.7c-0.2-0.2-1.1,0-1.4,0.3c-1.1,1.1-2.1,2.3-3,3.7c-2,3.3-4.9,4-8.3,3.1
						c-10.1-2.7-17.9-8.7-23.7-17.7c-1.5-2.3-3.3-4.4-4.3-6.8c-0.8-2-0.6-4.5-0.9-6.7c-0.1-1.1-0.4-2.1-0.6-3.1
						c-0.7,0.7-1.6,1.3-2,2.1c-1.4,3.6-2.1,3.7-4.9,0.6c1.9-1.9,3.8-3.9,5.5-6c0.6-0.8,0.5-2.3,0.6-3.4c-1.1,0.2-2.3,0.6-3.3,1.1
						c-1.4,0.9-2.5,2.3-3.9,3.3c-3.1,2.2-5.1,2-7.7-0.9c-4.6-5.3-9.2-10.8-11.8-17.5C460.5,205.6,461.3,200.1,465,197.6z"/>
					<path class="st3" d="M725.6,298.4c-2.3,1.3-4.4,3-6.7,4.2c-2.3,1-4.6,1.8-7.1,2.3c-0.6,0.1-1.5-1-2.2-1.5
						c0.4-0.7,0.8-1.4,1.4-2c0.6-0.5,1.7-0.4,2.3-0.9c2.2-1.7,4.3-3.5,6.5-5.3c1.9-1.6,3.6-3.8,5.8-4.8c3-1.5,6-2.8,7.6-6
						c1-1.8,2.3-2.6,4.1-0.9s3,3.6,1.3,5.8c-1.2,1.3-2.6,2.5-4.1,3.6c0.1,0.2,0.2,0.4,0.4,0.6C731.7,295.1,728.6,296.7,725.6,298.4z
						"/>
				</g>
				<g>
					<defs>
						<rect id="SVGID_3_" y="270.7" width="566.9" height="484.7"/>
					</defs>
					<clipPath id="SVGID_4_">
						<use xlink:href="#SVGID_3_"  style="overflow:visible;"/>
					</clipPath>
					<g class="st4">
						<path class="st5" d="M283.5,270.8C126.9,270.8,0,369.4,0,491.1c0,69.3,41.2,131.1,105.5,171.5c-11.2,30.2-26.1,58.9-44.5,85.5
							c49.6,22,106.1-11.4,146-44.7c25.1,5.4,50.7,8.1,76.4,8.1C440,711.5,567,612.8,567,491.1S440,270.8,283.5,270.8z"/>
					</g>
				</g>
				<g id="Handprint-2">
					<path class="st3" d="M336.1,527.5c-0.9-3.3-1.5-6.7-2.6-9.9c-0.6-1.6-1.5-3.2-2.7-4.5c-2.5-2.9-5.1-5.6-7.8-8.3
						c-4.4-4.4-9.8-6.3-15.9-6.6c-5.4-0.3-8.1-4.4-11.4-7.7c-2.8-3-5.9-5.8-9-8.4c-1.1-0.8-3.1-0.5-4.7-0.6c-0.9,0-1.8,0-2.7,0
						c-6.1-1.3-12.4-1.3-18.6-0.1c-0.5,0-1.1-0.1-1.6-0.3c0.1-0.6,0.3-1.3,0.6-1.9c0.9-1,1.9-1.9,3-2.7c-1-0.5-2.1-1-3.2-1.4
						c-7.2-1.7-14.8-0.9-21.5,2.2c-6,2.8-9.9,9.8-9.1,17.9c0.5,4.8,2.6,9.3,6,12.7l9.4,8.6c0.5,0.8,1.2,1.6,1.9,2.3
						c4.3,4.4,8.9,8.6,13.7,12.6c2.6,2,6.2,2.7,9.2,4.1c3.8,1.8,7.5,3.8,11.2,5.8c0.6,0.4,1.1,1,1.2,1.7l-6.5-1.9
						c-0.1,0.3-0.2,0.6-0.3,0.8c5.4,5.5,12.6,7,19.9,8.2l0.1,0.7c-0.9,0.2-2,0.7-2.7,0.5c-4.3-1.2-8.8-2.2-12.8-4.1
						c-3.3-1.5-6-4.2-9-6.3c-1.2-0.9-2.5-1.7-3.8-2.5c-0.2,0.2-0.4,0.4-0.6,0.5c1.3,2.7,2.8,5.4,3.9,8.2c2.1,5.2,4.1,10.5,5.8,15.8
						c0.6,1.9,0.4,4.1,0.5,6.2l-0.9,0.2c-0.2-0.7-0.4-1.3-0.6-2c-2.2-8.4-4.9-16.5-10-23.4c-1.4-1.9-3.6-3.1-5.4-4.6
						c-0.9-0.6-1.7-1.4-2.3-2.3c-0.8-1.9-2.5-3.3-4.6-3.7c-5.6-1-11.2-2.4-16.9-3c-3.2-0.3-6.6,0.7-9.9,1.2c-1,0.2-1.9,0.6-2.8,1
						c-0.1-0.5-0.3-1-0.4-1.5c0.8-0.7,1.5-1.6,2.4-2c5.2-2,11-2.2,16.4-0.6c2.4,0.7,4.8,1.4,7.2,2c1.2,0.2,2.4,0.3,3.5,0.3
						c-0.3-0.7-0.7-1.3-1.1-1.9c-1.9-2.3-3.8-4.7-5.8-7c-0.8-1-1.8-1.3-2.9-0.3c-1.8,1.7-3.4,1.2-5.3,0.1
						c-5.7-3.4-11.7-6.4-17.7-9.2c-4.2-1.8-8.8-2.5-13.3,0.6c-2.5,1.6-4,4.4-4,7.4c-0.1,1.9-0.3,3.8-0.7,5.6c-0.7,4-2.7,7-6.6,8.5
						c-1.6,0.7-3.2,1.7-4.6,2.8c-4.9,3.7-6.5,9-6.6,14.7c-0.1,4.1,0.9,8.2,1.4,12.3c0.3,2.1,0.7,4.1,0.9,6.2
						c0.4,4.6,0.5,9.3,1.1,13.9c1,8.2,5.6,13.7,12.1,17.6c4.5,2.9,9.7,4.3,15,4.2c6.1-0.2,10.9-3.5,15.3-7.6
						c5.8-5.4,9.2-12.9,9.5-20.9c0.2-1.1,0.6-2.2,1.4-3.1c1.8,0.4,1.2,2.1,1,3.3c-1.3,7.5-3,14.8-7.4,21.2c-1.5,1.9-3.1,3.6-4.9,5.1
						c-0.9,0.8-1.9,1.5-3.2,2.7c4.7,0.9,8.9,1.7,13.4,2.5c-0.5-2-0.9-3.8-1.4-5.6l0.8-0.5c0.9,0.5,1.7,1.1,2.5,1.7
						c1.6,1.5,3.2,3.1,4.7,4.6c2.3,2.1,4.1,4.8,5.1,7.7c0.6,1.2,1.6,2.1,2.8,2.7c6.2,3.5,12.6,6.3,20,6.3c8.7,0.1,17-3.6,22.5-10.3
						c1-1.2,2.2-2.2,3.4-3.3l1.8-2.2c1.8-3.2,3.4-6.4,5.4-9.5c6.2-9.8,12.4-19.6,18.9-29.2c6.1-8.9,9.4-18.9,11.9-29.1
						C338.3,537.7,337.5,532.6,336.1,527.5z"/>
					<path class="st3" d="M324.9,487c2.4-1.5,4.5-3.4,6.3-5.7c2.3-2.8,4.3-5.9,6-9.1c0.9-1.7,0.7-3.9,0.9-5.9c0-1.2,0-2.4-0.1-3.6
						c3.3,2.2,5.2,0.3,6.8-1.9c5.5-7.3,11-14.6,16.3-22.1c2.2-2.7,2.7-6.4,1.5-9.6c-0.8-2.3-0.5-5.1-0.7-8.3c1.4,1,2.9,1.8,4.5,2.5
						c1,0.2,2,0,2.7-0.7c5.5-6.6,10.2-13.8,14-21.5c2.2-4.4,2.6-8.8,0.5-13.1l-4.1-3.6c-1.6-0.2-3.2-0.6-4.9-0.6
						c-4.1-0.2-7.1,2.3-9.8,5.2c-5.8,6.1-10.2,13.3-12.9,21.2c-0.2,0.6-0.4,1.2-0.6,1.8c-1,4.1-0.9,3.9,2.8,5.4
						c1.8,0.7,3.3,2.3,4.8,3.6c0.4,0.3,0.4,1.1,0.6,1.7l-0.5,0.4c-2-1.1-4-2.3-6.1-3.4l-0.4,0.5c1.1,0.9,2.3,1.6,3.4,2.6
						c1.6,1.5,3.1,3,4.5,4.7c0.4,0.5,0.3,1.5,0.4,2.3c-0.7-0.3-1.6-0.3-2-0.8c-2.2-2.2-4.2-4.6-6.4-6.7c-3.2-3-6.7-2.6-9.9,0.7
						c-4.4,4.6-7,10.4-9.5,16.1c-1,2.3-1.9,4.7-2.6,7.2c-0.2,1,0,2.1,0.6,3c0.9,1,1.9,1.8,3,2.4c2.3,1.5,3,3.8,2.9,6.9
						c-0.7-0.4-1.3-0.8-1.9-1.3c-2-1.9-3.9-3.8-5.9-5.6c-0.9-0.5-1.8-1-2.9-1.2c2.2,2.1,4.3,4.4,6.2,6.7c1.7,2.3,3.9,4.5,2.9,8.8
						c-1.5-1.6-2.6-2.8-3.7-3.9c-1.6-1.8-3.4-3.4-5.2-4.9c-1.1-0.4-2.3-0.3-3.2,0.4c-5.9,6.4-9.8,13.7-9.3,22.7
						C314.2,486,320.2,489.6,324.9,487z"/>
					<path class="st3" d="M183.4,520.9c-3.1-3.4-6.7-6.3-10.6-8.6c-1.3-0.6-2-2-1.6-3.4c0.2-1.8,0.1-3.6,0.2-6.1
						c-1.2,1-1.8,1.5-2.5,2.1c-1.6-1.7-4-4.3-3.9-6.5c0.1-1.7,0.4-3.7-2.4-3c-0.3,0.1,1.3,0,1.2-0.4c-0.4-1.3-0.6-2.6-0.7-3.9
						c-0.4-8.4-4.6-14.3-11.5-18.1c-3.7-2.1-7.8-3.3-12-3.5c-3.7-0.2-7.3,1.1-10,3.5c-0.4,0.3-0.8,0.5-1.2,0.7l-1.8,2.2
						c-4.2,8.8-0.9,15.9,3.7,22.9c4.8,7.4,12.4,11.4,18.7,17c1.3,1.1,2.6,2.3,3.7,3.6c1.6,2,1.8,2.1,3.3-0.4
						c1.4-2.2,2.9-4.3,4.3-6.5l0.7,0.2c0.1,0.7,0.1,1.5,0,2.2c-1.2,3.1-0.5,6.7,1.8,9.1c2.5,2.8,4.9,5.8,7.1,8.9
						c1.4,2.1,2.6,4.3,3.6,6.6c1.6,3.8,4.5,4.4,7.7,1.6c2.7-2.4,4.5-5.6,5.2-9.1C187,527.9,186.7,524.2,183.4,520.9z"/>
					<path class="st3" d="M282,438.5c0,1.7,0.9,2.6,2.7,2.7c1.2,0.2,2.3,0.5,3.4,1c-0.1,0.4-0.2,0.8-0.3,1.1c-1.1,0-2.2,0.1-3.3,0.1
						c-3.3-0.1-4.5,0.5-5.6,3.4c-2.4,6.7-4.2,13.4-1.8,20.3c1.8,5.3,4.9,6.5,9.6,3.3c5.8-3.6,9.9-9.4,11.4-16
						c0.8-3.4-0.1-6.6-3.1-8.7c-0.3-0.2-0.6-0.4-0.8-0.8c-0.2-0.5-0.4-1-0.5-1.6c0.5,0,0.9,0,1.4,0c0.4,0.1,0.7,0.2,1.1,0.4
						c0.1-2.2,0.7-2.6,2.4-1.6c1.1,0.7,2.3,1.5,3.4,2.2c1.3,0.9,2.4,0.7,3-0.8c3.1-8,6.5-15.9,8.9-24.1c1.1-3.6,1.9-7.3,3.4-10.9
						c2.9-6.5,5.6-13.2,8.1-19.9c2.3-5.6,3.5-11.6,3.6-17.6c0-6.4-6.2-14.9-14.2-12.6c-3,0.8-5.5,3-6.7,5.9
						c-2.5,5.9-4.8,12-7.2,17.9c-2.3,5.5-4.5,11-6.9,16.5c-0.9,2-0.2,3,1.4,3.6c2.1,0.9,4.6,1.3,6.4,2.7c2.6,2.2,4.6,5,6.8,7.6
						c0.3,0.5,0.3,1.2,0,1.7c-0.4,0.4-1,0.7-1.5,0.6c-0.8-0.1-0.3-5.2-1.1-5.5c-3.8-1.4-7.6-2.8-11.4-4.1c-1-0.3-2.2-0.6-2.9,1
						c-3,6.7-8.2,17.7-9.2,25.2C282.2,434.1,282,436.3,282,438.5z"/>
					<path class="st3" d="M248.6,375.6c2.1,3.3,0.6,6.7-0.4,10c-1.5,4.8-3.1,9.7-4.6,14.5c-1,3,0.2,4.7,3.3,4.9
						c1.5,0.1,3.1,0.4,4.6,0.5c0,0.3,0,0.6,0,0.9l-7.1,2.3c0.1,0.3,0.1,0.6,0.2,0.9l5.1-0.8c0.1,0.3,0.2,0.6,0.3,1
						c-1.4,0.7-2.9,1.4-4.2,2.3c-0.9,0.6-2.1,1.4-2.3,2.3c-1.9,6.6-3.4,13.2-2.3,20.1c0.4,2.1,1.1,3,3.4,2.7c2.6-0.1,5.1,0,7.7,0.5
						c1.1,0.2,2.1,1.1,3.1,1.7c-0.3,0.6-0.3,0.9-0.4,0.9c-3.5,0.5-6.4,2.9-9.6,4.1c-2.7,1-4.5,3-4.2,5.9c0.4,4.5,1.1,9,2.1,13.4
						c1.4,5.3,5.6,7.5,10,6c2.6-0.8,4.5-3,4.9-5.7c1.1-5.5,1.8-11.1,2.5-16.6c0.2-1.7-0.3-3.5-0.5-5.3l0.6-0.2
						c-0.9-0.7-1.8-1.5-2.7-2.4c-0.3-0.5-0.5-1-0.6-1.6c0.5-0.2,1.1-0.7,1.5-0.6c1.8,0.6,2.4-0.6,2.6-2c1-7.9,1.9-15.7,2.9-23.6
						c0.2-1.8-0.9-2.2-2.3-2.5c-2.1-0.5-4.5-0.6-6.5-2.9l4.4-1.6l-5.3-2.8c2.3-1.2,2.3-1.2,10.6,2.1c0.4-1.8,0.9-3.5,1.3-5.2
						c0.5-2.1,0.9-4.1,1.5-6.2c2.7-9,4.2-18.3,4.3-27.6c0.3-5-2.3-9.8-6.7-12.3c-3.9-2.3-9.4-0.6-11.9,3.5
						c-3.5,5.6-4.7,11.9-5.4,18.3C248.5,374.8,248.5,375.2,248.6,375.6z"/>
					<path class="st3" d="M414,443.9c-3.8-2.5-8.7-1.8-11.7,1.5c-3.8,4-7.3,8.1-11.1,12c-1.7,1.8-3.7,3.4-5.8,4.7
						c-5.6,3.2-11.2,6.5-15.8,11.3c-1.3,1.4-2.3,3-3.5,4.4c-0.7,1-1.7,1.8-2.7,2.5c-5.6,2.7-10.6,6.5-14.7,11.2
						c-3.1,3.4-6.4,6.9-8,11.5c-1,3.1-0.5,6.5,1.5,8.2c2.5,2.1,4.9,2.5,7.9,0.1c5.8-4.5,11.4-9.4,17-14.2c1.8-1.5,1.3-3.2,0.3-4.8
						c-0.6-1-1.1-2-1.4-3.1c0-0.4,0.1-0.9,0.5-1.2c0.3-0.1,0.7-0.1,1,0.2c0.8,0.8,1.5,1.7,2.1,2.6c1.4,2.4,3.4,2.9,5.9,2.2
						c7-1.9,13-6.4,16.7-12.5c1.1-1.5,2.2-3.1,3-4.8c0.6-1.4,0.4-3.1,0.6-4.7c0.1-0.8,0.3-1.5,0.4-2.2c0.5,0.5,1.2,0.9,1.4,1.5
						c1,2.5,1.5,2.6,3.5,0.4c-1.4-1.4-2.7-2.8-3.9-4.3c-0.4-0.6-0.3-1.6-0.5-2.4c0.8,0.1,1.6,0.4,2.4,0.8c1,0.6,1.8,1.6,2.8,2.3
						c2.2,1.5,3.6,1.5,5.4-0.6c3.3-3.8,6.5-7.6,8.3-12.4C417.2,449.6,416.6,445.7,414,443.9z"/>
					<path class="st3" d="M230.2,515.3c1.6,0.9,3.1,2.2,4.8,3c1.6,0.7,3.3,1.3,5,1.6c0.4,0.1,1-0.7,1.6-1.1c-0.3-0.5-0.6-1-1-1.4
						c-0.4-0.3-1.2-0.3-1.6-0.7c-1.6-1.2-3.1-2.5-4.6-3.7c-1.4-1.1-2.5-2.6-4.1-3.4c-2.1-1-4.2-2-5.4-4.2c-0.7-1.3-1.6-1.9-2.9-0.6
						s-2.1,2.6-0.9,4.1c0.9,0.9,1.8,1.8,2.9,2.5l-0.3,0.4C225.9,513,228.1,514.1,230.2,515.3z"/>
				</g>
			</g>
		</g>
	</g>
</g>
</svg>
