<svg xmlns="http://www.w3.org/2000/svg" xmlns:xlink="http://www.w3.org/1999/xlink" viewBox="0 0 1009.08 755.12"><defs><style>.cls-1{fill:none;}.cls-2{clip-path:url(#clip-path);}.cls-3{fill:#49c5e5;}.cls-4{fill:#062a5b;}.cls-5{clip-path:url(#clip-path-2);}.cls-6{fill:#ffbd59;}</style><clipPath id="clip-path" transform="translate(-0.02 -0.05)"><rect class="cls-1" x="314.65" width="694.49" height="595.28"/></clipPath><clipPath id="clip-path-2" transform="translate(-0.02 -0.05)"><rect class="cls-1" y="270.71" width="566.93" height="484.72"/></clipPath></defs><title>Project Alphabet - Logo Only</title><g id="Layer_2" data-name="Layer 2"><g id="Logo_Deconstructed" data-name="Logo Deconstructed"><g id="Logo"><g class="cls-2"><path class="cls-3" d="M661.85.05c191.79,0,347.25,121.19,347.25,270.67,0,85.1-50.42,161-129.23,210.64A475.14,475.14,0,0,0,934.32,586.3c-60.79,27-130-14-178.86-54.9a439.9,439.9,0,0,1-93.61,10c-191.73,0-347.23-121.19-347.23-270.65S470.12.05,661.85.05Z" transform="translate(-0.02 -0.05)"/></g><g id="Handprint"><path class="cls-4" d="M575.44,315.69c1.27-4.64,2.19-9.42,3.71-13.95a19,19,0,0,1,3.85-6.28c3.53-4,7.27-7.87,11-11.67,6.17-6.21,13.92-8.87,22.5-9.28,7.61-.38,11.51-6.14,16.21-10.89a141.24,141.24,0,0,1,12.84-11.89c1.53-1.19,4.4-.63,6.67-.8a29.46,29.46,0,0,0,3.77-.08,68.44,68.44,0,0,1,26.34-.18,7.07,7.07,0,0,0,2.27-.36c-.26-.89-.28-2-.82-2.61a43.8,43.8,0,0,0-4.25-3.87,30.83,30.83,0,0,1,4.47-1.91,46.36,46.36,0,0,1,30.5,3.12c8.49,3.93,14.09,13.77,12.85,25.33a29.93,29.93,0,0,1-8.55,17.91l-13.32,12.09a20.54,20.54,0,0,1-2.65,3.32c-6.29,6.12-12.49,12.4-19.37,17.77-3.66,2.84-8.74,3.75-13,5.83-5.35,2.58-10.58,5.44-15.83,8.23a3.75,3.75,0,0,0-1.74,2.34l9.21-2.71c.13.41.26.81.4,1.2-7.68,7.71-17.82,9.84-28.13,11.59,0,.32-.06.64-.09,1,1.31.26,2.77,1,3.89.69,6.12-1.72,12.42-3.13,18.12-5.79,4.65-2.17,8.52-5.95,12.77-9,1.75-1.26,3.6-2.36,5.41-3.52.27.25.55.51.81.77-1.85,3.88-3.91,7.65-5.51,11.64-2.93,7.37-5.78,14.79-8.27,22.35-.87,2.65-.51,5.78-.72,8.69l1.26.29c.28-.93.6-1.84.85-2.77,3.06-11.85,6.9-23.36,14.18-33.05,2-2.65,5.15-4.34,7.72-6.52,1.18-1,2.67-1.89,3.29-3.24a8.4,8.4,0,0,1,6.46-5.17c8-1.47,15.89-3.43,24-4.23,4.56-.45,9.4.92,14.09,1.64a20.05,20.05,0,0,1,3.92,1.46l.57-2.07c-1.15-.95-2.17-2.32-3.45-2.75-7.72-2.6-15.45-3.27-23.18-.92q-5,1.55-10.18,2.77a33,33,0,0,1-5,.37,22.13,22.13,0,0,1,1.51-2.7q4-5,8.15-9.89c1.18-1.4,2.49-1.91,4.13-.35,2.57,2.42,4.85,1.63,7.58.12,8.23-4.59,16.46-9.3,25.1-13,5.92-2.53,12.43-3.54,18.8.84A12.19,12.19,0,0,1,766.14,306a56.34,56.34,0,0,0,.93,7.94c1,5.7,3.87,9.9,9.43,12.05a29.08,29.08,0,0,1,6.49,3.92c6.93,5.16,9.18,12.74,9.35,20.69.12,5.82-1.23,11.6-2,17.38-.37,2.94-1,5.85-1.23,8.8-.57,6.52-.76,13.1-1.52,19.58-1.37,11.54-8,19.35-17.23,24.9-6.47,3.86-13.45,6.22-21.28,5.94-8.71-.3-15.44-4.94-21.66-10.78-8.53-8-12.76-17.94-13.42-29.53-.09-1.53-1.6-4.41-1.94-4.35-2.58.51-1.65,2.92-1.36,4.6,1.81,10.53,4.28,20.91,10.47,29.94,1.87,2.73,4.51,4.91,6.88,7.24,1.22,1.2,2.62,2.18,4.59,3.79l-19,3.51c.69-2.86,1.31-5.41,1.93-8l-1.19-.66a27.76,27.76,0,0,0-3.55,2.37c-2.31,2.08-4.47,4.31-6.7,6.47A25.7,25.7,0,0,0,697,442.79c-.5,1.59-2.36,2.95-3.92,3.84-8.76,4.94-17.83,8.92-28.34,8.88A40.8,40.8,0,0,1,632.78,441c-1.46-1.67-3.19-3.09-4.79-4.63l-2.58-3.12c-2.52-4.47-4.83-9.07-7.59-13.39C609,406,600.28,392.11,591.05,378.56c-8.6-12.61-13.32-26.64-16.88-41.14C572.37,330.08,573.5,322.78,575.44,315.69Z" transform="translate(-0.02 -0.05)"/><path class="cls-4" d="M591.33,258.34a32.62,32.62,0,0,1-8.87-8A74.57,74.57,0,0,1,574,237.41c-1.21-2.37-1-5.53-1.22-8.33a42.36,42.36,0,0,1,.12-5.1c-4.71,3.15-7.31.44-9.62-2.63-7.77-10.34-15.56-20.66-23.12-31.15-2.92-4.06-4-8.46-2.15-13.57,1.16-3.3.69-7.28,1-11.78-2.73,1.61-4.41,3-6.33,3.58a4.38,4.38,0,0,1-3.82-1,153.51,153.51,0,0,1-19.95-30.36c-3.1-6.2-3.76-12.37-.7-18.52l5.81-5c2.3-.31,4.57-.8,6.89-.91,5.81-.26,10.05,3.2,13.88,7.3a84,84,0,0,1,18.31,30c.3.85.63,1.7.84,2.56,1.42,5.77,1.29,5.49-3.93,7.58-2.57,1-4.68,3.2-6.86,5-.55.47-.55,1.62-.8,2.46l.7.62,8.62-4.76.55.79a59.21,59.21,0,0,0-4.8,3.68A76,76,0,0,0,541,174.5c-.59.71-.38,2.17-.54,3.28,1-.35,2.24-.42,2.92-1.09,3.1-3.09,5.89-6.53,9.09-9.5,4.53-4.18,9.45-3.7,14,1,6.25,6.52,9.92,14.63,13.46,22.78a82.5,82.5,0,0,1,3.76,10.11,5.66,5.66,0,0,1-.84,4.26,15.71,15.71,0,0,1-4.25,3.37c-3.25,2.09-4.22,5.39-4.06,9.75a22.73,22.73,0,0,0,2.76-1.88c2.8-2.62,5.46-5.43,8.34-8,1-.84,2.41-1.07,4-1.75-3.29,3.51-6.37,6.25-8.8,9.51s-5.45,6.35-4.16,12.41c2.13-2.27,3.63-4,5.23-5.55a61.61,61.61,0,0,1,7.43-6.87c1-.69,3.71-.33,4.58.6,8.4,9,13.91,19.39,13.12,32C606.53,257,598,262.11,591.33,258.34Z" transform="translate(-0.02 -0.05)"/><path class="cls-4" d="M791.86,306.29c4.6-4.71,9.32-9.06,15-12.17,2.07-1.12,2.56-2.51,2.32-4.77-.26-2.56-.18-5.14-.27-8.67,1.74,1.42,2.53,2.08,3.52,2.9,2.24-2.37,5.66-6.07,5.54-9.22-.08-2.44-.57-5.27,3.45-4.28.4.1-1.84,0-1.68-.57a25,25,0,0,0,1.08-5.48c.64-11.91,6.49-20.17,16.27-25.5a37.35,37.35,0,0,1,17.07-4.89,19.3,19.3,0,0,1,14.14,5,9.71,9.71,0,0,0,1.71.94l2.58,3.12c6,12.45,1.3,22.39-5.17,32.32-6.83,10.47-17.58,16.07-26.45,24a44.47,44.47,0,0,0-5.22,5.14c-2.29,2.89-2.47,2.91-4.59-.51-1.94-3.12-4.06-6.13-6.09-9.18l-1,.23a10.45,10.45,0,0,0,0,3.16c1.63,5,.74,9-2.62,12.79a138.35,138.35,0,0,0-10,12.6,49.71,49.71,0,0,0-5,9.38c-2.25,5.42-6.34,6.18-10.89,2.23A23.58,23.58,0,0,1,788.22,322C786.84,316.19,787.24,311,791.86,306.29Z" transform="translate(-0.02 -0.05)"/><path class="cls-4" d="M652.08,189.91c0,2.43-1.28,3.7-3.81,3.87a21.6,21.6,0,0,0-4.84,1.44l.42,1.63c1.53,0,3.07.14,4.6.1,4.7-.08,6.44.78,7.93,4.86,3.44,9.42,5.92,18.9,2.55,28.72-2.56,7.45-6.9,9.13-13.64,4.72-8.22-5.39-13.91-12.89-16.09-22.64-1.08-4.82.08-9.33,4.33-12.23a3.42,3.42,0,0,0,1.18-1.08,13.2,13.2,0,0,0,.68-2.21,16.24,16.24,0,0,0-2,.07,8.32,8.32,0,0,0-1.53.51c-.11-3.07-1-3.66-3.39-2.24-1.63,1-3.23,2.06-4.79,3.17-1.8,1.27-3.42,1-4.23-1.16-4.38-11.3-9.22-22.5-12.65-34.07C605.29,158.22,604.17,153,602,148q-6.12-13.89-11.47-28.1c-3-8-5.22-16.35-5.17-24.88,0-9.08,8.73-21,20.13-17.87a14.11,14.11,0,0,1,9.48,8.31c3.62,8.34,6.76,16.89,10.2,25.31,3.18,7.78,6.36,15.57,9.8,23.24,1.29,2.88.31,4.19-2,5.15-3,1.26-6.59,1.81-9,3.81-3.65,3.06-6.56,7.07-9.67,10.79a2.64,2.64,0,0,0,0,2.43,2.74,2.74,0,0,0,2.2.92c1.12-.13.46-7.31,1.56-7.71,5.39-1.95,10.75-4,16.2-5.8,1.37-.46,3.1-.93,4.12,1.34,4.23,9.53,11.67,25.05,13,35.64A78.86,78.86,0,0,1,652.08,189.91Z" transform="translate(-0.02 -0.05)"/><path class="cls-4" d="M699.42,101.05c-2.93,4.71-.9,9.42.57,14.1,2.15,6.85,4.38,13.67,6.58,20.5,1.39,4.3-.28,6.68-4.73,6.93-2.16.11-4.31.48-6.47.74,0,.45,0,.88,0,1.32l10.11,3.29c-.09.41-.19.81-.28,1.22L698,148.06c-.13.46-.27.92-.41,1.38,2,1.06,4.09,2,6,3.22,1.28.84,2.94,2,3.32,3.24,2.73,9.3,4.82,18.69,3.22,28.37-.49,3-1.56,4.19-4.84,3.88a44.13,44.13,0,0,0-10.87.73c-1.57.25-2.94,1.57-4.34,2.37.41.88.48,1.25.58,1.26,5,.64,9,4,13.59,5.79,3.78,1.44,6.31,4.26,5.89,8.27a126.09,126.09,0,0,1-3,18.88c-2,7.41-8,10.55-14.22,8.49a10.05,10.05,0,0,1-6.84-8c-1.5-7.79-2.6-15.66-3.55-23.51-.29-2.44.45-4.95.72-7.43l-.84-.26a50.36,50.36,0,0,0,3.78-3.36,6.64,6.64,0,0,0,.89-2.26c-.73-.3-1.6-1-2.17-.84-2.61.84-3.39-.83-3.65-2.87-1.4-11.1-2.71-22.21-4-33.32-.31-2.52,1.27-3.14,3.2-3.59,3-.72,6.38-.82,9.16-4.13l-6.26-2.24,7.48-4c-3.33-1.76-3.33-1.76-15.05,3-.61-2.51-1.19-4.94-1.79-7.37-.71-2.9-1.26-5.86-2.16-8.72a138.57,138.57,0,0,1-6.11-39c-.17-7.35,3.06-13.71,9.47-17.4,5.55-3.17,13.26-.86,16.9,4.92,5,7.93,6.72,16.82,7.61,25.9A3,3,0,0,1,699.42,101.05Z" transform="translate(-0.02 -0.05)"/><path class="cls-4" d="M465,197.55c5-3.46,12.05-2.64,16.64,2.18,5.34,5.6,10.4,11.47,15.81,17a38.23,38.23,0,0,0,8.21,6.63c8,4.55,15.87,9.25,22.41,16,1.84,1.91,3.26,4.22,5,6.23a13,13,0,0,0,3.86,3.47c8.08,3.64,14.82,9.24,20.78,15.8,4.41,4.86,9.08,9.67,11.27,16.21,1.45,4.33.65,9.25-2.1,11.61-3.48,3-6.91,3.47-11.2.15-8.24-6.39-16.12-13.29-24.11-20-2.53-2.14-1.84-4.47-.44-6.83a25.92,25.92,0,0,0,2.05-4.36,2.13,2.13,0,0,0-.66-1.66c-.22-.21-1.11,0-1.4.26a20.57,20.57,0,0,0-3,3.68c-2,3.33-4.87,4-8.32,3.12-10.07-2.68-17.91-8.72-23.71-17.72-1.47-2.27-3.3-4.38-4.29-6.83-.82-2-.61-4.46-.9-6.69-.14-1.06-.37-2.11-.57-3.14-.68.69-1.64,1.27-2,2.12-1.44,3.58-2.12,3.7-4.89.58a79.49,79.49,0,0,0,5.52-6c.62-.81.46-2.28.65-3.43A13.26,13.26,0,0,0,486.3,227c-1.42.91-2.55,2.28-3.94,3.26-3.06,2.16-5.13,2-7.69-.89-4.63-5.33-9.19-10.75-11.79-17.53C460.49,205.6,461.29,200.13,465,197.55Z" transform="translate(-0.02 -0.05)"/><path class="cls-4" d="M725.56,298.43c-2.29,1.31-4.36,3-6.72,4.17a31.65,31.65,0,0,1-7.09,2.25c-.6.12-1.49-1-2.24-1.54a8,8,0,0,1,1.39-2c.63-.49,1.67-.44,2.3-.93,2.21-1.69,4.34-3.49,6.47-5.27,1.92-1.62,3.56-3.75,5.75-4.8,3-1.47,6-2.75,7.63-5.95,1-1.83,2.3-2.65,4.11-.91s3,3.62,1.29,5.81a29.91,29.91,0,0,1-4.07,3.61q.17.31.36.63C731.67,295.13,728.57,296.7,725.56,298.43Z" transform="translate(-0.02 -0.05)"/></g><g class="cls-5"><path class="cls-6" d="M283.5,270.75C126.93,270.75,0,369.43,0,491.15c0,69.3,41.17,131.12,105.51,171.52a386.41,386.41,0,0,1-44.46,85.45c49.63,22,106.12-11.38,146-44.7a360.27,360.27,0,0,0,76.42,8.11C440,711.53,567,612.85,567,491.15S440,270.75,283.5,270.75Z" transform="translate(-0.02 -0.05)"/></g><g id="Handprint-2" data-name="Handprint"><path class="cls-4" d="M336.1,527.55c-.9-3.28-1.55-6.66-2.62-9.87a13.25,13.25,0,0,0-2.72-4.45c-2.49-2.86-5.13-5.57-7.78-8.26-4.36-4.4-9.82-6.28-15.88-6.57-5.37-.27-8.11-4.35-11.44-7.71a98.49,98.49,0,0,0-9.05-8.42c-1.08-.84-3.11-.45-4.71-.57a21.36,21.36,0,0,1-2.66-.05,48,48,0,0,0-18.58-.13,5.1,5.1,0,0,1-1.6-.26,5.16,5.16,0,0,1,.58-1.85,30.9,30.9,0,0,1,3-2.73,22.12,22.12,0,0,0-3.16-1.36A32.61,32.61,0,0,0,238,477.53c-6,2.78-9.94,9.75-9.07,17.93a21.25,21.25,0,0,0,6,12.69l9.4,8.56a14.2,14.2,0,0,0,1.87,2.35,169,169,0,0,0,13.67,12.58c2.58,2,6.16,2.66,9.18,4.13,3.78,1.82,7.47,3.85,11.17,5.82a2.65,2.65,0,0,1,1.23,1.66l-6.5-1.92c-.09.29-.18.57-.28.85,5.42,5.46,12.57,7,19.85,8.21l.06.68c-.92.18-1.95.71-2.74.49-4.32-1.22-8.77-2.22-12.79-4.11-3.27-1.53-6-4.2-9-6.34-1.23-.89-2.54-1.67-3.81-2.49-.19.18-.39.36-.57.55,1.3,2.74,2.75,5.41,3.88,8.24,2.07,5.22,4.08,10.47,5.84,15.82.61,1.88.36,4.1.51,6.15l-.9.21c-.19-.66-.42-1.3-.59-2-2.16-8.39-4.87-16.54-10-23.4-1.41-1.88-3.63-3.07-5.44-4.62a7.84,7.84,0,0,1-2.33-2.29,5.9,5.9,0,0,0-4.55-3.66c-5.63-1-11.21-2.43-16.9-3-3.22-.32-6.64.66-9.95,1.16a13.66,13.66,0,0,0-2.76,1c-.14-.5-.27-1-.4-1.47.81-.67,1.53-1.64,2.43-1.95a26.1,26.1,0,0,1,16.35-.64c2.37.72,4.77,1.38,7.19,2a22,22,0,0,0,3.54.26,14.84,14.84,0,0,0-1.06-1.91q-2.85-3.52-5.75-7c-.83-1-1.76-1.35-2.92-.25-1.81,1.72-3.42,1.16-5.34.09a191.87,191.87,0,0,0-17.71-9.21c-4.17-1.79-8.77-2.5-13.26.6a8.61,8.61,0,0,0-4,7.37,41.36,41.36,0,0,1-.67,5.63c-.72,4-2.72,7-6.64,8.53a20.39,20.39,0,0,0-4.58,2.78c-4.89,3.65-6.48,9-6.6,14.65-.09,4.11.87,8.21,1.39,12.3.26,2.09.69,4.14.87,6.23.4,4.62.53,9.28,1.07,13.87,1,8.17,5.61,13.7,12.15,17.62a26.82,26.82,0,0,0,15,4.21c6.15-.21,10.9-3.5,15.29-7.63A29.91,29.91,0,0,0,238.32,578a6.09,6.09,0,0,1,1.37-3.08c1.82.36,1.17,2.07,1,3.26-1.29,7.45-3,14.8-7.39,21.2a37.25,37.25,0,0,1-4.86,5.12c-.85.85-1.85,1.54-3.24,2.68,4.74.87,8.86,1.65,13.41,2.49-.49-2-.92-3.83-1.36-5.64l.84-.47a20.59,20.59,0,0,1,2.5,1.68c1.63,1.48,3.16,3.06,4.73,4.59a18.11,18.11,0,0,1,5.07,7.74,5.81,5.81,0,0,0,2.76,2.71c6.19,3.5,12.58,6.32,20,6.29a28.76,28.76,0,0,0,22.53-10.29c1-1.18,2.24-2.19,3.38-3.27l1.81-2.21c1.78-3.17,3.42-6.43,5.36-9.49,6.21-9.78,12.37-19.63,18.88-29.22,6.07-8.93,9.4-18.86,11.91-29.13C338.26,537.74,337.47,532.57,336.1,527.55Z" transform="translate(-0.02 -0.05)"/><path class="cls-4" d="M324.89,487a23.07,23.07,0,0,0,6.25-5.68,53,53,0,0,0,6-9.14c.85-1.68.68-3.92.86-5.9a31.38,31.38,0,0,0-.09-3.61c3.32,2.23,5.16.31,6.79-1.86,5.48-7.32,11-14.63,16.31-22.06a9.9,9.9,0,0,0,1.52-9.61c-.82-2.33-.49-5.15-.72-8.34a26.6,26.6,0,0,0,4.47,2.54,3.07,3.07,0,0,0,2.69-.69A108.92,108.92,0,0,0,383,401.11c2.18-4.39,2.65-8.76.49-13.12l-4.1-3.57c-1.62-.22-3.22-.57-4.86-.64-4.1-.19-7.09,2.26-9.79,5.16a59.51,59.51,0,0,0-12.92,21.24c-.21.6-.44,1.2-.59,1.81-1,4.08-.91,3.89,2.77,5.37,1.81.72,3.31,2.26,4.84,3.57.39.32.39,1.14.56,1.74l-.49.44q-3-1.69-6.08-3.37l-.39.55c1.14.86,2.34,1.64,3.39,2.61a52.91,52.91,0,0,1,4.54,4.69c.42.5.27,1.53.38,2.32-.7-.25-1.58-.3-2-.77-2.19-2.19-4.16-4.62-6.42-6.73-3.2-3-6.67-2.62-9.85.71-4.42,4.61-7,10.35-9.5,16.12a58.09,58.09,0,0,0-2.65,7.16,4,4,0,0,0,.59,3,11.14,11.14,0,0,0,3,2.38c2.3,1.48,3,3.82,2.87,6.91a14.53,14.53,0,0,1-1.94-1.34c-2-1.85-3.86-3.84-5.89-5.63a11,11,0,0,0-2.85-1.24,83.68,83.68,0,0,1,6.21,6.73c1.68,2.26,3.85,4.5,2.94,8.79-1.5-1.61-2.56-2.81-3.69-3.93a44.38,44.38,0,0,0-5.24-4.86,3.29,3.29,0,0,0-3.23.42c-5.93,6.37-9.81,13.73-9.26,22.66C314.17,486,320.16,489.62,324.89,487Z" transform="translate(-0.02 -0.05)"/><path class="cls-4" d="M183.42,520.9a45.3,45.3,0,0,0-10.61-8.62,2.92,2.92,0,0,1-1.63-3.38c.18-1.81.13-3.63.19-6.14-1.23,1-1.79,1.48-2.48,2.06-1.58-1.68-4-4.3-3.92-6.53.06-1.73.41-3.73-2.43-3-.28.07,1.3,0,1.19-.4A17.78,17.78,0,0,1,163,491c-.45-8.43-4.57-14.29-11.47-18.06a26.33,26.33,0,0,0-12-3.46,13.63,13.63,0,0,0-10,3.55,6.72,6.72,0,0,1-1.21.67l-1.82,2.21c-4.23,8.81-.91,15.85,3.65,22.88,4.82,7.42,12.41,11.38,18.66,17a30.86,30.86,0,0,1,3.68,3.64c1.62,2.05,1.75,2.06,3.25-.36,1.36-2.2,2.86-4.34,4.29-6.5l.68.16a7.63,7.63,0,0,1,0,2.24,8.57,8.57,0,0,0,1.84,9.06,95.25,95.25,0,0,1,7.05,8.92,35.83,35.83,0,0,1,3.55,6.64c1.59,3.84,4.47,4.37,7.68,1.58a16.78,16.78,0,0,0,5.23-9.1C187,527.91,186.68,524.24,183.42,520.9Z" transform="translate(-0.02 -0.05)"/><path class="cls-4" d="M282,438.5c0,1.72.9,2.62,2.69,2.74a15.3,15.3,0,0,1,3.41,1c-.1.38-.19.77-.29,1.15-1.08,0-2.17.1-3.25.08-3.31-.06-4.54.54-5.59,3.43-2.43,6.67-4.18,13.38-1.8,20.34,1.8,5.28,4.87,6.46,9.62,3.34a25.41,25.41,0,0,0,11.35-16c.76-3.41-.06-6.6-3.06-8.66a2.31,2.31,0,0,1-.82-.76,9.21,9.21,0,0,1-.48-1.57,12.82,12.82,0,0,1,1.39.05,6.22,6.22,0,0,1,1.08.36c.08-2.17.73-2.59,2.39-1.58,1.15.7,2.28,1.46,3.38,2.24,1.27.9,2.42.67,3-.82,3.09-8,6.5-15.93,8.92-24.12,1.08-3.65,1.87-7.33,3.42-10.88q4.32-9.82,8.09-19.89a49.3,49.3,0,0,0,3.65-17.62c0-6.43-6.16-14.89-14.2-12.65a10,10,0,0,0-6.69,5.88c-2.55,5.91-4.77,12-7.19,17.92-2.25,5.51-4.49,11-6.91,16.45-.92,2-.23,3,1.37,3.65,2.13.9,4.65,1.28,6.35,2.7,2.58,2.17,4.63,5,6.82,7.64a1.84,1.84,0,0,1,0,1.72,1.89,1.89,0,0,1-1.55.65c-.79-.09-.32-5.18-1.09-5.46-3.81-1.38-7.59-2.83-11.44-4.11-1-.32-2.18-.65-2.9,1-3,6.74-8.24,17.73-9.19,25.23A54.07,54.07,0,0,0,282,438.5Z" transform="translate(-0.02 -0.05)"/><path class="cls-4" d="M248.63,375.58c2.07,3.34.64,6.67-.4,10-1.51,4.84-3.09,9.68-4.64,14.51-1,3.05.2,4.73,3.33,4.9,1.53.09,3.05.35,4.57.53,0,.32,0,.62,0,.94l-7.13,2.33c.07.28.14.57.2.86l5.1-.77c.09.32.19.65.29,1-1.42.74-2.88,1.4-4.22,2.27-.9.6-2.07,1.38-2.34,2.3-1.93,6.58-3.4,13.23-2.27,20.09.35,2.12,1.1,3,3.41,2.74a31.39,31.39,0,0,1,7.67.52c1.11.18,2.07,1.11,3.06,1.68-.29.62-.34.88-.41.89-3.53.45-6.35,2.86-9.58,4.1-2.67,1-4.46,3-4.16,5.85a88.67,88.67,0,0,0,2.12,13.37c1.39,5.25,5.64,7.47,10,6A7.11,7.11,0,0,0,258.1,464c1.06-5.51,1.84-11.09,2.51-16.65.2-1.72-.32-3.5-.51-5.25l.59-.19a35.68,35.68,0,0,1-2.67-2.38,4.78,4.78,0,0,1-.63-1.6c.52-.21,1.14-.73,1.54-.6,1.84.6,2.39-.58,2.57-2,1-7.85,1.91-15.72,2.86-23.59.21-1.78-.9-2.22-2.26-2.54-2.14-.51-4.5-.58-6.46-2.92l4.41-1.59-5.27-2.81c2.35-1.24,2.35-1.24,10.61,2.12.43-1.78.85-3.5,1.27-5.22.5-2.06.89-4.15,1.52-6.17a98.26,98.26,0,0,0,4.31-27.64,13.31,13.31,0,0,0-6.68-12.32c-3.91-2.25-9.36-.61-11.92,3.48-3.53,5.62-4.74,11.91-5.37,18.34A2,2,0,0,0,248.63,375.58Z" transform="translate(-0.02 -0.05)"/><path class="cls-4" d="M414,443.91a9.08,9.08,0,0,0-11.74,1.54c-3.77,4-7.34,8.12-11.15,12a27.42,27.42,0,0,1-5.8,4.7c-5.65,3.22-11.19,6.55-15.8,11.34-1.3,1.35-2.31,3-3.55,4.41a9.32,9.32,0,0,1-2.73,2.46,44.81,44.81,0,0,0-14.66,11.18c-3.11,3.44-6.4,6.85-7.95,11.48-1,3.06-.46,6.55,1.48,8.22,2.46,2.11,4.88,2.46,7.91.1,5.81-4.52,11.37-9.4,17-14.18,1.79-1.51,1.3-3.16.31-4.83a18.1,18.1,0,0,1-1.44-3.09,1.47,1.47,0,0,1,.46-1.17,1,1,0,0,1,1,.18,14.5,14.5,0,0,1,2.15,2.61c1.38,2.35,3.44,2.85,5.87,2.2a28,28,0,0,0,16.73-12.55,30.68,30.68,0,0,0,3-4.83c.57-1.44.43-3.15.63-4.74.1-.75.26-1.49.4-2.22.48.49,1.16.9,1.4,1.5,1,2.53,1.49,2.62,3.45.41a55.92,55.92,0,0,1-3.9-4.27c-.43-.57-.32-1.61-.46-2.42a9.45,9.45,0,0,1,2.36.76c1,.65,1.79,1.61,2.77,2.31,2.17,1.53,3.63,1.45,5.43-.63,3.26-3.78,6.48-7.61,8.32-12.41C417.19,449.61,416.63,445.73,414,443.91Z" transform="translate(-0.02 -0.05)"/><path class="cls-4" d="M230.19,515.33c1.62.93,3.08,2.16,4.75,3a22.67,22.67,0,0,0,5,1.59c.43.08,1-.71,1.59-1.09a5.51,5.51,0,0,0-1-1.43c-.44-.34-1.17-.31-1.62-.65-1.56-1.2-3.06-2.47-4.57-3.74-1.35-1.14-2.51-2.65-4.05-3.39-2.13-1-4.21-1.95-5.39-4.21-.67-1.3-1.62-1.88-2.89-.65s-2.12,2.56-.91,4.12a20.66,20.66,0,0,0,2.87,2.55l-.25.44C225.88,513,228.07,514.11,230.19,515.33Z" transform="translate(-0.02 -0.05)"/></g></g></g></g></svg>